<?xml version="1.0" encoding="UTF-8" standalone="no"?>
<svg
   xmlns:dc="http://purl.org/dc/elements/1.1/"
   xmlns:cc="http://creativecommons.org/ns#"
   xmlns:rdf="http://www.w3.org/1999/02/22-rdf-syntax-ns#"
   xmlns:svg="http://www.w3.org/2000/svg"
   xmlns="http://www.w3.org/2000/svg"
   id="svg8"
   version="1.1"
   viewBox="0 0 210 297"
   height="297mm"
   width="210mm">
  <defs
     id="defs2" />
  <metadata
     id="metadata5">
    <rdf:RDF>
      <cc:Work
         rdf:about="">
        <dc:format>image/svg+xml</dc:format>
        <dc:type
           rdf:resource="http://purl.org/dc/dcmitype/StillImage" />
        <dc:title></dc:title>
      </cc:Work>
    </rdf:RDF>
  </metadata>
  <g
     id="layer1">
    <g
       id="g1463">
      <circle
         style="fill:#333333;fill-opacity:1;stroke:none;stroke-width:0.25273949;stroke-opacity:1"
         id="path1249"
         cx="42.449089"
         cy="69.020073"
         r="36.528755" />
      <path
         id="path1288"
         d="m 48.896921,90.799872 a 4.8481577,3.6595997 0 0 1 -0.34313,-0.0093 4.8481577,3.6595997 0 0 1 -0.481108,-0.04392 4.8481577,3.6595997 0 0 1 -0.472839,-0.0801 4.8481577,3.6595997 0 0 1 -0.45992,-0.115755 4.8481577,3.6595997 0 0 1 -0.442352,-0.149344 4.8481577,3.6595997 0 0 1 -0.08836,-0.03824 4.0925646,5.5541949 0 0 0 0.04806,-0.0098 4.0925646,5.5541949 0 0 0 0.396359,-0.137459 4.0925646,5.5541949 0 0 0 0.383955,-0.190169 4.0925646,5.5541949 0 0 0 0.368454,-0.241848 4.0925646,5.5541949 0 0 0 0.348813,-0.289904 4.0925646,5.5541949 0 0 0 0.325562,-0.335896 4.0925646,5.5541949 0 0 0 0.299725,-0.378788 4.0925646,5.5541949 0 0 0 0.269751,-0.417029 4.0925646,5.5541949 0 0 0 0.237712,-0.451651 4.0925646,5.5541949 0 0 0 0.203605,-0.481627 4.0925646,5.5541949 0 0 0 0.167431,-0.506428 4.0925646,5.5541949 0 0 0 0.128675,-0.5271 4.0925646,5.5541949 0 0 0 0.08992,-0.541568 4.0925646,5.5541949 0 0 0 0.04909,-0.551389 4.0925646,5.5541949 0 0 0 0.01033,-0.39274 4.0925646,5.5541949 0 0 0 -0.02067,-0.554487 4.0925646,5.5541949 0 0 0 -0.06098,-0.548804 4.0925646,5.5541949 0 0 0 -0.04858,-0.258384 4.0925646,5.5541949 0 0 0 -0.05271,-0.279569 4.0925646,5.5541949 0 0 0 -0.140041,-0.521415 4.0925646,5.5541949 0 0 0 -0.178284,-0.500226 4.0925646,5.5541949 0 0 0 -0.213424,-0.473358 4.0925646,5.5541949 0 0 0 -0.247531,-0.441833 4.0925646,5.5541949 0 0 0 -0.04341,-0.06305 4.0925646,5.5541949 0 0 1 0.01344,-0.001 4.0925646,5.5541949 0 0 1 0.289904,0.01395 4.0925646,5.5541949 0 0 1 0.405662,0.06666 4.0925646,5.5541949 0 0 1 0.399457,0.121957 4.0925646,5.5541949 0 0 1 0.388091,0.174667 4.0925646,5.5541949 0 0 1 0.373621,0.226859 4.0925646,5.5541949 0 0 1 0.354499,0.276469 4.0925646,5.5541949 0 0 1 0.332796,0.322977 4.0925646,5.5541949 0 0 1 0.307475,0.366387 4.0925646,5.5541949 0 0 1 0.279053,0.406175 4.0925646,5.5541949 0 0 1 0.247531,0.441836 4.0925646,5.5541949 0 0 1 0.213424,0.473355 4.0925646,5.5541949 0 0 1 0.178284,0.500227 4.0925646,5.5541949 0 0 1 0.08475,0.316261 4.0925646,5.5541949 0 0 1 0.05529,0.205156 4.0925646,5.5541949 0 0 1 0.101288,0.53795 4.0925646,5.5541949 0 0 1 0.06098,0.548804 4.0925646,5.5541949 0 0 1 0.02067,0.554488 4.0925646,5.5541949 0 0 1 -0.01033,0.392742 4.0925646,5.5541949 0 0 1 -0.04909,0.551386 4.0925646,5.5541949 0 0 1 -0.08992,0.541571 4.0925646,5.5541949 0 0 1 -0.128675,0.527097 4.0925646,5.5541949 0 0 1 -0.167431,0.506431 4.0925646,5.5541949 0 0 1 -0.108006,0.254765 4.8481577,3.6595997 0 0 1 -0.109037,0.09405 4.8481577,3.6595997 0 0 1 -0.3545,0.249081 4.8481577,3.6595997 0 0 1 -0.386021,0.221692 4.8481577,3.6595997 0 0 1 -0.412896,0.191204 4.8481577,3.6595997 0 0 1 -0.436666,0.159162 4.8481577,3.6595997 0 0 1 -0.455268,0.125058 4.8481577,3.6595997 0 0 1 -0.469223,0.09095 4.8481577,3.6595997 0 0 1 -0.479041,0.05426 4.8481577,3.6595997 0 0 1 -0.484209,0.01861 z"
         style="fill:#b3b3b3;fill-opacity:1;stroke:none;stroke-width:0.26458332;stroke-opacity:1" />
      <path
         id="path1286"
         d="m 44.027688,43.764471 a 4.8481577,3.6595997 0 0 0 -0.34313,0.0093 4.8481577,3.6595997 0 0 0 -0.481108,0.04392 4.8481577,3.6595997 0 0 0 -0.472839,0.0801 4.8481577,3.6595997 0 0 0 -0.45992,0.115755 4.8481577,3.6595997 0 0 0 -0.442352,0.149344 4.8481577,3.6595997 0 0 0 -0.08836,0.03824 4.0925646,5.5541949 0 0 1 0.04806,0.0098 4.0925646,5.5541949 0 0 1 0.396359,0.137459 4.0925646,5.5541949 0 0 1 0.383955,0.190169 4.0925646,5.5541949 0 0 1 0.368454,0.241848 4.0925646,5.5541949 0 0 1 0.348813,0.289904 4.0925646,5.5541949 0 0 1 0.325562,0.335896 4.0925646,5.5541949 0 0 1 0.299725,0.378788 4.0925646,5.5541949 0 0 1 0.269751,0.417029 4.0925646,5.5541949 0 0 1 0.237712,0.451651 4.0925646,5.5541949 0 0 1 0.203605,0.481627 4.0925646,5.5541949 0 0 1 0.167431,0.506428 4.0925646,5.5541949 0 0 1 0.128675,0.5271 4.0925646,5.5541949 0 0 1 0.08992,0.541568 4.0925646,5.5541949 0 0 1 0.04909,0.551389 4.0925646,5.5541949 0 0 1 0.01033,0.39274 4.0925646,5.5541949 0 0 1 -0.02067,0.554487 4.0925646,5.5541949 0 0 1 -0.06098,0.548804 4.0925646,5.5541949 0 0 1 -0.04858,0.258384 4.0925646,5.5541949 0 0 1 -0.05271,0.279569 4.0925646,5.5541949 0 0 1 -0.140041,0.521415 4.0925646,5.5541949 0 0 1 -0.178284,0.500226 4.0925646,5.5541949 0 0 1 -0.213424,0.473358 4.0925646,5.5541949 0 0 1 -0.247531,0.441833 4.0925646,5.5541949 0 0 1 -0.04341,0.06305 4.0925646,5.5541949 0 0 0 0.01344,0.001 4.0925646,5.5541949 0 0 0 0.289904,-0.01395 4.0925646,5.5541949 0 0 0 0.405662,-0.06666 4.0925646,5.5541949 0 0 0 0.399457,-0.121957 4.0925646,5.5541949 0 0 0 0.388091,-0.174667 4.0925646,5.5541949 0 0 0 0.373621,-0.226859 4.0925646,5.5541949 0 0 0 0.354499,-0.276469 4.0925646,5.5541949 0 0 0 0.332796,-0.322977 4.0925646,5.5541949 0 0 0 0.307475,-0.366387 4.0925646,5.5541949 0 0 0 0.279053,-0.406175 4.0925646,5.5541949 0 0 0 0.247531,-0.441836 4.0925646,5.5541949 0 0 0 0.213424,-0.473355 4.0925646,5.5541949 0 0 0 0.178284,-0.500227 4.0925646,5.5541949 0 0 0 0.08475,-0.316261 4.0925646,5.5541949 0 0 0 0.05529,-0.205156 4.0925646,5.5541949 0 0 0 0.101288,-0.53795 4.0925646,5.5541949 0 0 0 0.06098,-0.548804 4.0925646,5.5541949 0 0 0 0.02067,-0.554488 4.0925646,5.5541949 0 0 0 -0.01033,-0.392742 4.0925646,5.5541949 0 0 0 -0.04909,-0.551386 4.0925646,5.5541949 0 0 0 -0.08992,-0.541571 4.0925646,5.5541949 0 0 0 -0.128675,-0.527097 4.0925646,5.5541949 0 0 0 -0.167431,-0.506431 4.0925646,5.5541949 0 0 0 -0.108006,-0.254765 4.8481577,3.6595997 0 0 0 -0.109037,-0.09405 4.8481577,3.6595997 0 0 0 -0.3545,-0.249081 4.8481577,3.6595997 0 0 0 -0.386021,-0.221692 4.8481577,3.6595997 0 0 0 -0.412896,-0.191204 4.8481577,3.6595997 0 0 0 -0.436666,-0.159162 4.8481577,3.6595997 0 0 0 -0.455268,-0.125058 4.8481577,3.6595997 0 0 0 -0.469223,-0.09095 4.8481577,3.6595997 0 0 0 -0.479041,-0.05426 4.8481577,3.6595997 0 0 0 -0.484209,-0.01861 z"
         style="fill:#b3b3b3;fill-opacity:1;stroke:none;stroke-width:0.26458332;stroke-opacity:1" />
      <path
         style="fill:#ff5555;fill-opacity:1;stroke:none;stroke-width:0.31753197;stroke-opacity:1"
         d="m 18.050572,60.259835 a 15.926908,16.657724 0 0 0 -1.059883,0.974101 15.926908,16.657724 0 0 0 -1.085205,1.218014 15.926908,16.657724 0 0 0 -0.96325,1.325499 15.926908,16.657724 0 0 0 -0.83199,1.419554 15.926908,16.657724 0 0 0 -0.692465,1.499647 15.926908,16.657724 0 0 0 -0.546219,1.564246 15.926908,16.657724 0 0 0 -0.393774,1.612823 15.926908,16.657724 0 0 0 -0.237712,1.64641 15.926908,16.657724 0 0 0 -0.07958,1.663464 15.926908,16.657724 0 0 0 0.03979,1.178224 15.926908,16.657724 0 0 0 0.19172,1.652611 15.926908,16.657724 0 0 0 0.348816,1.624709 15.926908,16.657724 0 0 0 0.501779,1.580263 15.926908,16.657724 0 0 0 0.650606,1.519804 15.926908,16.657724 0 0 0 0.792199,1.444358 15.926908,16.657724 0 0 0 0.926042,1.354439 15.926908,16.657724 0 0 0 1.050581,1.251085 15.926908,16.657724 0 0 0 1.164788,1.134816 15.926908,16.657724 0 0 0 1.267622,1.00769 15.926908,16.657724 0 0 0 1.357024,0.87023 15.926908,16.657724 0 0 0 1.433499,0.724503 15.926908,16.657724 0 0 0 1.49552,0.570508 15.926908,16.657724 0 0 0 1.54254,0.41238 15.926908,16.657724 0 0 0 1.57406,0.248563 15.926908,16.657724 0 0 0 1.59008,0.0832 15.926908,16.657724 0 0 0 1.12655,-0.04186 15.926908,16.657724 0 0 0 1.58078,-0.200504 15.926908,16.657724 0 0 0 0.43667,-0.102836 15.926908,16.657724 0 0 0 1.11673,-0.262001 15.926908,16.657724 0 0 0 1.5105,-0.525031 15.926908,16.657724 0 0 0 1.45314,-0.680064 15.926908,16.657724 0 0 0 1.38131,-0.828373 15.926908,16.657724 0 0 0 1.29501,-0.968415 15.926908,16.657724 0 0 0 1.19579,-1.099158 15.926908,16.657724 0 0 0 1.08521,-1.218012 15.926908,16.657724 0 0 0 0.96325,-1.325502 c 0.20505,-0.383058 0.78159,-1.055145 1.01492,-1.420069 0.29993,-0.458362 0.62159,-0.900747 0.96377,-1.325499 0.34208,-0.424844 0.70427,-0.83153 1.0852,-1.218531 0.38084,-0.386828 0.77994,-0.753501 1.1958,-1.098642 0.41595,-0.345358 0.84816,-0.66874 1.29501,-0.968931 0.44677,-0.300024 0.90761,-0.576492 1.38079,-0.828373 0.47324,-0.251881 0.95823,-0.478854 1.45314,-0.680064 0.49499,-0.20125 0.99929,-0.376478 1.51102,-0.525031 0.51166,-0.148622 1.0301,-0.270386 1.55339,-0.364837 0.52323,-0.09434 1.05065,-0.161261 1.58027,-0.200504 0.37493,-0.02785 0.75068,-0.04181 1.12655,-0.04186 0.30785,0.0067 0.61545,0.02273 0.92242,0.04806 -0.0993,-0.08082 -0.19961,-0.160409 -0.30076,-0.238747 -0.43818,-0.313727 -0.89108,-0.60434 -1.35702,-0.870746 -0.46616,-0.266187 -0.94477,-0.507817 -1.43402,-0.723987 -0.48909,-0.216297 -0.98822,-0.406877 -1.49552,-0.571024 -0.50729,-0.164095 -1.02211,-0.301554 -1.54254,-0.411861 -0.52039,-0.110419 -1.04573,-0.193548 -1.57406,-0.249081 -0.52837,-0.05544 -1.05906,-0.08321 -1.59008,-0.0832 -0.14631,0.0034 -0.29257,0.0089 -0.43874,0.01654 a 15.926908,16.657724 0 0 0 -0.68781,0.02532 15.926908,16.657724 0 0 0 -1.58027,0.200504 15.926908,16.657724 0 0 0 -0.43718,0.102836 15.926908,16.657724 0 0 0 -1.11621,0.262001 15.926908,16.657724 0 0 0 -0.83406,0.289904 15.926908,16.657724 0 0 0 -0.67696,0.235127 15.926908,16.657724 0 0 0 -1.45314,0.680064 15.926908,16.657724 0 0 0 -0.95446,0.572574 15.926908,16.657724 0 0 1 -0.83406,0.289904 15.926908,16.657724 0 0 1 -1.5534,0.364837 15.926908,16.657724 0 0 1 -1.58026,0.200504 15.926908,16.657724 0 0 1 -1.12655,0.04186 15.926908,16.657724 0 0 1 -1.59008,-0.0832 15.926908,16.657724 0 0 1 -1.57458,-0.249081 15.926908,16.657724 0 0 1 -1.54254,-0.411861 15.926908,16.657724 0 0 1 -1.495,-0.571024 15.926908,16.657724 0 0 1 -1.43402,-0.723987 15.926908,16.657724 0 0 1 -1.35702,-0.87023 15.926908,16.657724 0 0 1 -1.26762,-1.00769 15.926908,16.657724 0 0 1 -0.27544,-0.268719 15.926908,16.657724 0 0 1 -0.88935,-0.866613 15.926908,16.657724 0 0 1 -1.050583,-1.250569 15.926908,16.657724 0 0 1 -0.926041,-1.354439 15.926908,16.657724 0 0 1 -0.7922,-1.444358 15.926908,16.657724 0 0 1 -0.650089,-1.519804 15.926908,16.657724 0 0 1 -0.502293,-1.580263 15.926908,16.657724 0 0 1 -0.3483,-1.624709 15.926908,16.657724 0 0 1 -0.0016,-0.01188 z M 46.39354,71.043672 c -0.38083,0.387006 -0.77992,0.753849 -1.19579,1.099159 -0.38298,0.31514 -0.77958,0.611727 -1.18856,0.888833 a 15.926908,16.657724 0 0 0 1.18856,-0.888833 15.926908,16.657724 0 0 0 1.19579,-1.099159 z m -2.37918,2.139921 c -1e-5,0.555358 -0.0266,1.110366 -0.0796,1.662949 -0.0531,0.552614 -0.13263,1.102103 -0.23823,1.646409 -0.10548,0.544134 -0.2369,1.082416 -0.39378,1.612823 -0.15685,0.530604 -0.33898,1.052672 -0.5457,1.564246 a 15.926908,16.657724 0 0 0 0.5457,-1.564246 15.926908,16.657724 0 0 0 0.39378,-1.612823 15.926908,16.657724 0 0 0 0.23823,-1.646409 15.926908,16.657724 0 0 0 0.0796,-1.662949 z m -1.26091,6.494695 c -0.2059,0.508733 -0.43565,1.006547 -0.68884,1.491383 -0.20507,0.382881 -0.42452,0.757139 -0.65785,1.121894 a 15.926908,16.657724 0 0 0 0.65785,-1.121894 15.926908,16.657724 0 0 0 0.68884,-1.491383 z"
         id="path1435" />
      <path
         style="fill:#306998;fill-opacity:1;stroke:none;stroke-width:0.26458332;stroke-opacity:1"
         d="m 42.449087,32.497241 a 36.523048,36.523048 0 0 0 -2.583304,0.09147 36.523048,36.523048 0 0 0 -3.624585,0.439766 36.523048,36.523048 0 0 0 -3.562057,0.799436 36.523048,36.523048 0 0 0 -3.464388,1.15135 36.523048,36.523048 0 0 0 -3.332612,1.491382 36.523048,36.523048 0 0 0 -3.166732,1.816426 36.523048,36.523048 0 0 0 -2.969328,2.123384 36.523048,36.523048 0 0 0 -2.742986,2.409672 36.523048,36.523048 0 0 0 -2.488218,2.671156 36.523048,36.523048 0 0 0 -2.209687,2.906282 36.523048,36.523048 0 0 0 -1.27899,2.086178 36.523048,36.523048 0 0 0 -0.628901,1.026293 36.523048,36.523048 0 0 0 -1.588019,3.287138 36.523048,36.523048 0 0 0 -1.2521194,3.429764 36.523048,36.523048 0 0 0 -0.9033034,3.537252 36.523048,36.523048 0 0 0 -0.5451869,3.609599 36.523048,36.523048 0 0 0 -0.1824178,3.646289 36.523048,36.523048 0 0 0 0.091467,2.583823 36.523048,36.523048 0 0 0 0.4397663,3.624067 36.523048,36.523048 0 0 0 0.7994332,3.562056 36.523048,36.523048 0 0 0 1.1513529,3.464388 36.523048,36.523048 0 0 0 1.4913822,3.332615 36.523048,36.523048 0 0 0 1.8164259,3.166732 36.523048,36.523048 0 0 0 2.123384,2.969326 36.523048,36.523048 0 0 0 1.53634,1.749248 36.523048,36.523048 0 0 0 0.873332,0.993738 36.523048,36.523048 0 0 0 2.671156,2.488221 36.523048,36.523048 0 0 0 2.906281,2.209683 36.523048,36.523048 0 0 0 3.112471,1.907895 36.523048,36.523048 0 0 0 3.287139,1.58801 36.523048,36.523048 0 0 0 3.429764,1.25212 36.523048,36.523048 0 0 0 3.537252,0.90331 36.523048,36.523048 0 0 0 3.609599,0.54518 36.523048,36.523048 0 0 0 3.646289,0.18242 36.523048,36.523048 0 0 0 2.583305,-0.0915 36.523048,36.523048 0 0 0 3.624585,-0.43976 36.523048,36.523048 0 0 0 3.562056,-0.79944 36.523048,36.523048 0 0 0 0.155546,-0.0517 24.216218,24.216218 0 0 0 0.637172,-0.45578 24.216218,24.216218 0 0 0 1.819011,-1.59732 24.216218,24.216218 0 0 0 1.650026,-1.77147 24.216218,24.216218 0 0 0 1.464511,-1.927009 24.216218,24.216218 0 0 0 1.265555,-2.063438 24.216218,24.216218 0 0 0 1.05265,-2.179714 24.216218,24.216218 0 0 0 0.829924,-2.273763 24.216218,24.216218 0 0 0 0.598929,-2.345592 24.216218,24.216218 0 0 0 0.230476,-1.525489 24.216218,24.216218 0 0 0 0.13126,-0.867646 24.216218,24.216218 0 0 0 0.120922,-2.41794 24.216218,24.216218 0 0 0 -0.06046,-1.712558 24.216218,24.216218 0 0 0 -0.291971,-2.403469 24.216218,24.216218 0 0 0 -0.529685,-2.361615 24.216218,24.216218 0 0 0 -0.763259,-2.297018 24.216218,24.216218 0 0 0 -0.105937,-0.236159 24.216218,24.216218 0 0 1 -0.721405,1.977655 24.216218,24.216218 0 0 1 -1.052647,2.179195 24.216218,24.216218 0 0 1 -1.265555,2.063957 24.216218,24.216218 0 0 1 -1.465027,1.927016 24.216218,24.216218 0 0 1 -1.649513,1.770951 24.216218,24.216218 0 0 1 -1.819011,1.597835 24.216218,24.216218 0 0 1 -1.96887,1.407665 24.216218,24.216218 0 0 1 -2.099614,1.204579 24.216218,24.216218 0 0 1 -2.209168,0.988568 24.216218,24.216218 0 0 1 -2.297536,0.763262 24.216218,24.216218 0 0 1 -2.361612,0.530201 24.216218,24.216218 0 0 1 -2.402954,0.291971 24.216218,24.216218 0 0 1 -1.713074,0.06046 24.216218,24.216218 0 0 1 -2.417424,-0.120922 24.216218,24.216218 0 0 1 -2.393651,-0.361736 24.216218,24.216218 0 0 1 -1.866553,-0.476456 26.453825,26.453825 0 0 1 -1.711007,-1.049549 26.453825,26.453825 0 0 1 -2.105298,-1.60042 26.453825,26.453825 0 0 1 -1.934766,-1.802474 26.453825,26.453825 0 0 1 -1.745112,-1.986441 26.453825,26.453825 0 0 1 -1.538406,-2.150774 26.453825,26.453825 0 0 1 -1.315683,-2.293917 26.453825,26.453825 0 0 1 -1.080037,-2.413288 26.453825,26.453825 0 0 1 -0.833541,-2.509409 26.453825,26.453825 0 0 1 -0.579292,-2.580203 26.453825,26.453825 0 0 1 -0.195339,-1.606622 26.453825,26.453825 0 0 1 -0.123505,-1.018542 26.453825,26.453825 0 0 1 -0.06615,-1.871202 26.453825,26.453825 0 0 1 0.132292,-2.641182 26.453825,26.453825 0 0 1 0.394808,-2.614311 26.453825,26.453825 0 0 1 0.381371,-1.493967 26.453825,26.453825 0 0 1 0.272851,-1.068152 26.453825,26.453825 0 0 1 0.906923,-2.484086 26.453825,26.453825 0 0 1 1.150316,-2.380731 26.453825,26.453825 0 0 1 1.381829,-2.254644 26.453825,26.453825 0 0 1 1.600419,-2.104782 26.453825,26.453825 0 0 1 1.802474,-1.934766 26.453825,26.453825 0 0 1 1.986442,-1.745112 26.453825,26.453825 0 0 1 2.15129,-1.538406 26.453825,26.453825 0 0 1 2.2934,-1.315683 26.453825,26.453825 0 0 1 1.533239,-0.686263 24.216218,24.216218 0 0 1 2.205032,-0.267685 24.216218,24.216218 0 0 1 1.713074,-0.06046 24.216218,24.216218 0 0 1 2.417424,0.120923 24.216218,24.216218 0 0 1 2.393654,0.361733 24.216218,24.216218 0 0 1 2.345076,0.598932 24.216218,24.216218 0 0 1 2.274279,0.829921 24.216218,24.216218 0 0 1 2.179195,1.05265 24.216218,24.216218 0 0 1 2.063957,1.265555 24.216218,24.216218 0 0 1 1.927013,1.464511 24.216218,24.216218 0 0 1 1.770951,1.650029 24.216218,24.216218 0 0 1 1.597838,1.819011 24.216218,24.216218 0 0 1 0.031,0.04341 24.216218,24.216218 0 0 0 0.123507,-0.256315 24.216218,24.216218 0 0 0 0.83044,-2.273763 24.216218,24.216218 0 0 0 0.598413,-2.345076 24.216218,24.216218 0 0 0 0.296622,-1.964222 24.216218,24.216218 0 0 0 0.06511,-0.429432 24.216218,24.216218 0 0 0 0.121438,-2.417421 24.216218,24.216218 0 0 0 -0.06098,-1.713074 24.216218,24.216218 0 0 0 -0.291455,-2.402953 24.216218,24.216218 0 0 0 -0.530201,-2.361616 24.216218,24.216218 0 0 0 -0.512111,-1.540989 36.523048,36.523048 0 0 0 -0.366903,-0.177252 36.523048,36.523048 0 0 0 -3.429765,-1.252119 36.523048,36.523048 0 0 0 -3.537252,-0.903304 36.523048,36.523048 0 0 0 -3.609599,-0.545187 36.523048,36.523048 0 0 0 -3.646289,-0.182417 z"
         id="path1205" />
      <path
         style="fill:#c8b7b7;fill-opacity:1;stroke:none;stroke-width:0.26458332;stroke-opacity:1"
         d="m 47.581454,91.67685 a 4.8481577,3.6595997 0 0 1 -0.34313,-0.0093 4.8481577,3.6595997 0 0 1 -0.481108,-0.04392 4.8481577,3.6595997 0 0 1 -0.472839,-0.0801 4.8481577,3.6595997 0 0 1 -0.45992,-0.115755 4.8481577,3.6595997 0 0 1 -0.442352,-0.149344 4.8481577,3.6595997 0 0 1 -0.08836,-0.03824 4.0925646,5.5541949 0 0 0 0.04806,-0.0098 4.0925646,5.5541949 0 0 0 0.396359,-0.137459 4.0925646,5.5541949 0 0 0 0.383955,-0.190169 4.0925646,5.5541949 0 0 0 0.368454,-0.241848 4.0925646,5.5541949 0 0 0 0.348813,-0.289904 4.0925646,5.5541949 0 0 0 0.325562,-0.335896 4.0925646,5.5541949 0 0 0 0.299725,-0.378788 4.0925646,5.5541949 0 0 0 0.269751,-0.417029 4.0925646,5.5541949 0 0 0 0.237712,-0.451651 4.0925646,5.5541949 0 0 0 0.203605,-0.481627 4.0925646,5.5541949 0 0 0 0.167431,-0.506428 4.0925646,5.5541949 0 0 0 0.128675,-0.5271 4.0925646,5.5541949 0 0 0 0.08992,-0.541568 4.0925646,5.5541949 0 0 0 0.04909,-0.551389 4.0925646,5.5541949 0 0 0 0.01033,-0.39274 4.0925646,5.5541949 0 0 0 -0.02067,-0.554487 4.0925646,5.5541949 0 0 0 -0.06098,-0.548804 4.0925646,5.5541949 0 0 0 -0.04858,-0.258384 4.0925646,5.5541949 0 0 0 -0.05271,-0.279569 4.0925646,5.5541949 0 0 0 -0.140041,-0.521415 4.0925646,5.5541949 0 0 0 -0.178284,-0.500226 4.0925646,5.5541949 0 0 0 -0.213424,-0.473358 4.0925646,5.5541949 0 0 0 -0.247531,-0.441833 4.0925646,5.5541949 0 0 0 -0.04341,-0.06305 4.0925646,5.5541949 0 0 1 0.01344,-0.001 4.0925646,5.5541949 0 0 1 0.289904,0.01395 4.0925646,5.5541949 0 0 1 0.405662,0.06666 4.0925646,5.5541949 0 0 1 0.399457,0.121957 4.0925646,5.5541949 0 0 1 0.388091,0.174667 4.0925646,5.5541949 0 0 1 0.373621,0.226859 4.0925646,5.5541949 0 0 1 0.354499,0.276469 4.0925646,5.5541949 0 0 1 0.332796,0.322977 4.0925646,5.5541949 0 0 1 0.307475,0.366387 4.0925646,5.5541949 0 0 1 0.279053,0.406175 4.0925646,5.5541949 0 0 1 0.247531,0.441836 4.0925646,5.5541949 0 0 1 0.213424,0.473355 4.0925646,5.5541949 0 0 1 0.178284,0.500227 4.0925646,5.5541949 0 0 1 0.08475,0.316261 4.0925646,5.5541949 0 0 1 0.05529,0.205156 4.0925646,5.5541949 0 0 1 0.101288,0.53795 4.0925646,5.5541949 0 0 1 0.06098,0.548804 4.0925646,5.5541949 0 0 1 0.02067,0.554488 4.0925646,5.5541949 0 0 1 -0.01033,0.392742 4.0925646,5.5541949 0 0 1 -0.04909,0.551386 4.0925646,5.5541949 0 0 1 -0.08992,0.541571 4.0925646,5.5541949 0 0 1 -0.128675,0.527097 4.0925646,5.5541949 0 0 1 -0.167431,0.506431 4.0925646,5.5541949 0 0 1 -0.108006,0.254765 4.8481577,3.6595997 0 0 1 -0.109037,0.09405 4.8481577,3.6595997 0 0 1 -0.3545,0.249081 4.8481577,3.6595997 0 0 1 -0.386021,0.221692 4.8481577,3.6595997 0 0 1 -0.412896,0.191204 4.8481577,3.6595997 0 0 1 -0.436666,0.159162 4.8481577,3.6595997 0 0 1 -0.455268,0.125058 4.8481577,3.6595997 0 0 1 -0.469223,0.09095 4.8481577,3.6595997 0 0 1 -0.479041,0.05426 4.8481577,3.6595997 0 0 1 -0.484209,0.01861 z"
         id="path1290" />
      <path
         style="fill:#c8b7b7;fill-opacity:1;stroke:none;stroke-width:0.26458332;stroke-opacity:1"
         d="m 46.573002,43.661118 a 4.8481577,3.6595997 0 0 0 -0.34313,0.0093 4.8481577,3.6595997 0 0 0 -0.481108,0.04392 4.8481577,3.6595997 0 0 0 -0.472839,0.0801 4.8481577,3.6595997 0 0 0 -0.45992,0.115755 4.8481577,3.6595997 0 0 0 -0.442352,0.149344 4.8481577,3.6595997 0 0 0 -0.08836,0.03824 4.0925646,5.5541949 0 0 1 0.04806,0.0098 4.0925646,5.5541949 0 0 1 0.396359,0.137459 4.0925646,5.5541949 0 0 1 0.383955,0.190169 4.0925646,5.5541949 0 0 1 0.368454,0.241848 4.0925646,5.5541949 0 0 1 0.348813,0.289904 4.0925646,5.5541949 0 0 1 0.325562,0.335896 4.0925646,5.5541949 0 0 1 0.299725,0.378788 4.0925646,5.5541949 0 0 1 0.269751,0.417029 4.0925646,5.5541949 0 0 1 0.237712,0.451651 4.0925646,5.5541949 0 0 1 0.203605,0.481627 4.0925646,5.5541949 0 0 1 0.167431,0.506428 4.0925646,5.5541949 0 0 1 0.128675,0.5271 4.0925646,5.5541949 0 0 1 0.08992,0.541568 4.0925646,5.5541949 0 0 1 0.04909,0.551389 4.0925646,5.5541949 0 0 1 0.01033,0.39274 4.0925646,5.5541949 0 0 1 -0.02067,0.554487 4.0925646,5.5541949 0 0 1 -0.06098,0.548804 4.0925646,5.5541949 0 0 1 -0.04858,0.258384 4.0925646,5.5541949 0 0 1 -0.05271,0.279569 4.0925646,5.5541949 0 0 1 -0.140041,0.521415 4.0925646,5.5541949 0 0 1 -0.178284,0.500226 4.0925646,5.5541949 0 0 1 -0.213424,0.473358 4.0925646,5.5541949 0 0 1 -0.247531,0.441833 4.0925646,5.5541949 0 0 1 -0.04341,0.06305 4.0925646,5.5541949 0 0 0 0.01344,0.001 4.0925646,5.5541949 0 0 0 0.289904,-0.01395 4.0925646,5.5541949 0 0 0 0.405662,-0.06666 4.0925646,5.5541949 0 0 0 0.399457,-0.121957 4.0925646,5.5541949 0 0 0 0.388091,-0.174667 4.0925646,5.5541949 0 0 0 0.373621,-0.226859 4.0925646,5.5541949 0 0 0 0.354499,-0.276469 4.0925646,5.5541949 0 0 0 0.332796,-0.322977 4.0925646,5.5541949 0 0 0 0.307475,-0.366387 4.0925646,5.5541949 0 0 0 0.279053,-0.406175 4.0925646,5.5541949 0 0 0 0.247531,-0.441836 4.0925646,5.5541949 0 0 0 0.213424,-0.473355 4.0925646,5.5541949 0 0 0 0.178284,-0.500227 4.0925646,5.5541949 0 0 0 0.08475,-0.316261 4.0925646,5.5541949 0 0 0 0.05529,-0.205156 4.0925646,5.5541949 0 0 0 0.101288,-0.53795 4.0925646,5.5541949 0 0 0 0.06098,-0.548804 4.0925646,5.5541949 0 0 0 0.02067,-0.554488 4.0925646,5.5541949 0 0 0 -0.01033,-0.392742 4.0925646,5.5541949 0 0 0 -0.04909,-0.551386 4.0925646,5.5541949 0 0 0 -0.08992,-0.541571 4.0925646,5.5541949 0 0 0 -0.128675,-0.527097 4.0925646,5.5541949 0 0 0 -0.167431,-0.506431 4.0925646,5.5541949 0 0 0 -0.108006,-0.254765 4.8481577,3.6595997 0 0 0 -0.109037,-0.09405 4.8481577,3.6595997 0 0 0 -0.3545,-0.249081 4.8481577,3.6595997 0 0 0 -0.386021,-0.221692 4.8481577,3.6595997 0 0 0 -0.412896,-0.191204 4.8481577,3.6595997 0 0 0 -0.436666,-0.159162 4.8481577,3.6595997 0 0 0 -0.455268,-0.125058 4.8481577,3.6595997 0 0 0 -0.469223,-0.09095 4.8481577,3.6595997 0 0 0 -0.479041,-0.05426 4.8481577,3.6595997 0 0 0 -0.484209,-0.01861 z"
         id="path1273" />
    </g>
    <g
       transform="translate(-1.6536458,3.3072917)"
       id="g1502">
      <circle
         r="36.528755"
         cy="65.712784"
         cx="134.40628"
         id="circle1465"
         style="fill:#cccccc;fill-opacity:1;stroke:none;stroke-width:0.25273949;stroke-opacity:1" />
      <path
         style="fill:#b3b3b3;fill-opacity:1;stroke:none;stroke-width:0.26458332;stroke-opacity:1"
         d="m 140.85411,87.49258 a 4.8481577,3.6595997 0 0 1 -0.34313,-0.0093 4.8481577,3.6595997 0 0 1 -0.48111,-0.04392 4.8481577,3.6595997 0 0 1 -0.47284,-0.0801 4.8481577,3.6595997 0 0 1 -0.45992,-0.115755 4.8481577,3.6595997 0 0 1 -0.44235,-0.149344 4.8481577,3.6595997 0 0 1 -0.0884,-0.03824 4.0925646,5.5541949 0 0 0 0.0481,-0.0098 4.0925646,5.5541949 0 0 0 0.39636,-0.137459 4.0925646,5.5541949 0 0 0 0.38396,-0.190169 4.0925646,5.5541949 0 0 0 0.36845,-0.241848 4.0925646,5.5541949 0 0 0 0.34881,-0.289904 4.0925646,5.5541949 0 0 0 0.32556,-0.335896 4.0925646,5.5541949 0 0 0 0.29973,-0.378788 4.0925646,5.5541949 0 0 0 0.26975,-0.417029 4.0925646,5.5541949 0 0 0 0.23771,-0.451651 4.0925646,5.5541949 0 0 0 0.20361,-0.481627 4.0925646,5.5541949 0 0 0 0.16743,-0.506428 4.0925646,5.5541949 0 0 0 0.12867,-0.5271 4.0925646,5.5541949 0 0 0 0.0899,-0.541568 4.0925646,5.5541949 0 0 0 0.0491,-0.551389 4.0925646,5.5541949 0 0 0 0.0103,-0.39274 4.0925646,5.5541949 0 0 0 -0.0207,-0.554487 4.0925646,5.5541949 0 0 0 -0.061,-0.548804 4.0925646,5.5541949 0 0 0 -0.0486,-0.258384 4.0925646,5.5541949 0 0 0 -0.0527,-0.279569 4.0925646,5.5541949 0 0 0 -0.14004,-0.521415 4.0925646,5.5541949 0 0 0 -0.17828,-0.500226 4.0925646,5.5541949 0 0 0 -0.21343,-0.473358 4.0925646,5.5541949 0 0 0 -0.24753,-0.441833 4.0925646,5.5541949 0 0 0 -0.0434,-0.06305 4.0925646,5.5541949 0 0 1 0.0134,-0.001 4.0925646,5.5541949 0 0 1 0.28991,0.01395 4.0925646,5.5541949 0 0 1 0.40566,0.06666 4.0925646,5.5541949 0 0 1 0.39946,0.121957 4.0925646,5.5541949 0 0 1 0.38809,0.174667 4.0925646,5.5541949 0 0 1 0.37362,0.226859 4.0925646,5.5541949 0 0 1 0.3545,0.276469 4.0925646,5.5541949 0 0 1 0.33279,0.322977 4.0925646,5.5541949 0 0 1 0.30748,0.366387 4.0925646,5.5541949 0 0 1 0.27905,0.406175 4.0925646,5.5541949 0 0 1 0.24753,0.441836 4.0925646,5.5541949 0 0 1 0.21343,0.473355 4.0925646,5.5541949 0 0 1 0.17828,0.500227 4.0925646,5.5541949 0 0 1 0.0848,0.316261 4.0925646,5.5541949 0 0 1 0.0553,0.205156 4.0925646,5.5541949 0 0 1 0.10129,0.53795 4.0925646,5.5541949 0 0 1 0.061,0.548804 4.0925646,5.5541949 0 0 1 0.0207,0.554488 4.0925646,5.5541949 0 0 1 -0.0103,0.392742 4.0925646,5.5541949 0 0 1 -0.0491,0.551386 4.0925646,5.5541949 0 0 1 -0.0899,0.541571 4.0925646,5.5541949 0 0 1 -0.12868,0.527097 4.0925646,5.5541949 0 0 1 -0.16743,0.506431 4.0925646,5.5541949 0 0 1 -0.108,0.254765 4.8481577,3.6595997 0 0 1 -0.10904,0.09405 4.8481577,3.6595997 0 0 1 -0.3545,0.249081 4.8481577,3.6595997 0 0 1 -0.38602,0.221692 4.8481577,3.6595997 0 0 1 -0.4129,0.191204 4.8481577,3.6595997 0 0 1 -0.43666,0.159162 4.8481577,3.6595997 0 0 1 -0.45527,0.125058 4.8481577,3.6595997 0 0 1 -0.46922,0.09095 4.8481577,3.6595997 0 0 1 -0.47905,0.05426 4.8481577,3.6595997 0 0 1 -0.4842,0.01861 z"
         id="path1467" />
      <path
         style="fill:#b3b3b3;fill-opacity:1;stroke:none;stroke-width:0.26458332;stroke-opacity:1"
         d="m 135.98488,40.457179 a 4.8481577,3.6595997 0 0 0 -0.34313,0.0093 4.8481577,3.6595997 0 0 0 -0.48111,0.04392 4.8481577,3.6595997 0 0 0 -0.47284,0.0801 4.8481577,3.6595997 0 0 0 -0.45992,0.115755 4.8481577,3.6595997 0 0 0 -0.44235,0.149344 4.8481577,3.6595997 0 0 0 -0.0884,0.03824 4.0925646,5.5541949 0 0 1 0.0481,0.0098 4.0925646,5.5541949 0 0 1 0.39636,0.137459 4.0925646,5.5541949 0 0 1 0.38395,0.190169 4.0925646,5.5541949 0 0 1 0.36846,0.241848 4.0925646,5.5541949 0 0 1 0.34881,0.289904 4.0925646,5.5541949 0 0 1 0.32556,0.335896 4.0925646,5.5541949 0 0 1 0.29973,0.378788 4.0925646,5.5541949 0 0 1 0.26975,0.417029 4.0925646,5.5541949 0 0 1 0.23771,0.451651 4.0925646,5.5541949 0 0 1 0.2036,0.481627 4.0925646,5.5541949 0 0 1 0.16744,0.506428 4.0925646,5.5541949 0 0 1 0.12867,0.5271 4.0925646,5.5541949 0 0 1 0.0899,0.541568 4.0925646,5.5541949 0 0 1 0.0491,0.551389 4.0925646,5.5541949 0 0 1 0.0103,0.39274 4.0925646,5.5541949 0 0 1 -0.0207,0.554487 4.0925646,5.5541949 0 0 1 -0.061,0.548804 4.0925646,5.5541949 0 0 1 -0.0486,0.258384 4.0925646,5.5541949 0 0 1 -0.0527,0.279569 4.0925646,5.5541949 0 0 1 -0.14004,0.521415 4.0925646,5.5541949 0 0 1 -0.17828,0.500226 4.0925646,5.5541949 0 0 1 -0.21343,0.473358 4.0925646,5.5541949 0 0 1 -0.24753,0.441833 4.0925646,5.5541949 0 0 1 -0.0434,0.06305 4.0925646,5.5541949 0 0 0 0.0134,10e-4 4.0925646,5.5541949 0 0 0 0.2899,-0.01395 4.0925646,5.5541949 0 0 0 0.40567,-0.06666 4.0925646,5.5541949 0 0 0 0.39945,-0.121957 4.0925646,5.5541949 0 0 0 0.38809,-0.174667 4.0925646,5.5541949 0 0 0 0.37363,-0.226859 4.0925646,5.5541949 0 0 0 0.35449,-0.276469 4.0925646,5.5541949 0 0 0 0.3328,-0.322977 4.0925646,5.5541949 0 0 0 0.30748,-0.366387 4.0925646,5.5541949 0 0 0 0.27905,-0.406175 4.0925646,5.5541949 0 0 0 0.24753,-0.441836 4.0925646,5.5541949 0 0 0 0.21342,-0.473355 4.0925646,5.5541949 0 0 0 0.17829,-0.500227 4.0925646,5.5541949 0 0 0 0.0847,-0.316261 4.0925646,5.5541949 0 0 0 0.0553,-0.205156 4.0925646,5.5541949 0 0 0 0.10129,-0.53795 4.0925646,5.5541949 0 0 0 0.061,-0.548804 4.0925646,5.5541949 0 0 0 0.0207,-0.554488 4.0925646,5.5541949 0 0 0 -0.0103,-0.392742 4.0925646,5.5541949 0 0 0 -0.0491,-0.551386 4.0925646,5.5541949 0 0 0 -0.0899,-0.541571 4.0925646,5.5541949 0 0 0 -0.12868,-0.527097 4.0925646,5.5541949 0 0 0 -0.16743,-0.506431 4.0925646,5.5541949 0 0 0 -0.10801,-0.254765 4.8481577,3.6595997 0 0 0 -0.10903,-0.09405 4.8481577,3.6595997 0 0 0 -0.3545,-0.249081 4.8481577,3.6595997 0 0 0 -0.38602,-0.221692 4.8481577,3.6595997 0 0 0 -0.4129,-0.191204 4.8481577,3.6595997 0 0 0 -0.43667,-0.159162 4.8481577,3.6595997 0 0 0 -0.45526,-0.125058 4.8481577,3.6595997 0 0 0 -0.46923,-0.09095 4.8481577,3.6595997 0 0 0 -0.47904,-0.05426 4.8481577,3.6595997 0 0 0 -0.48421,-0.01861 z"
         id="path1469" />
      <path
         id="path1471"
         d="m 110.00776,56.952543 a 15.926908,16.657724 0 0 0 -1.05988,0.974101 15.926908,16.657724 0 0 0 -1.08521,1.218014 15.926908,16.657724 0 0 0 -0.96325,1.325499 15.926908,16.657724 0 0 0 -0.83199,1.419554 15.926908,16.657724 0 0 0 -0.69246,1.499647 15.926908,16.657724 0 0 0 -0.54622,1.564246 15.926908,16.657724 0 0 0 -0.39377,1.612823 15.926908,16.657724 0 0 0 -0.23772,1.64641 15.926908,16.657724 0 0 0 -0.0796,1.663464 15.926908,16.657724 0 0 0 0.0398,1.178224 15.926908,16.657724 0 0 0 0.19172,1.652611 15.926908,16.657724 0 0 0 0.34882,1.624709 15.926908,16.657724 0 0 0 0.50178,1.580263 15.926908,16.657724 0 0 0 0.6506,1.519804 15.926908,16.657724 0 0 0 0.7922,1.444358 15.926908,16.657724 0 0 0 0.92605,1.354439 15.926908,16.657724 0 0 0 1.05058,1.251085 15.926908,16.657724 0 0 0 1.16478,1.134816 15.926908,16.657724 0 0 0 1.26763,1.00769 15.926908,16.657724 0 0 0 1.35702,0.87023 15.926908,16.657724 0 0 0 1.4335,0.724503 15.926908,16.657724 0 0 0 1.49552,0.570508 15.926908,16.657724 0 0 0 1.54254,0.41238 15.926908,16.657724 0 0 0 1.57406,0.248563 15.926908,16.657724 0 0 0 1.59008,0.0832 15.926908,16.657724 0 0 0 1.12655,-0.04186 15.926908,16.657724 0 0 0 1.58078,-0.200504 15.926908,16.657724 0 0 0 0.43667,-0.102836 15.926908,16.657724 0 0 0 1.11673,-0.262001 15.926908,16.657724 0 0 0 1.5105,-0.525031 15.926908,16.657724 0 0 0 1.45314,-0.680064 15.926908,16.657724 0 0 0 1.38131,-0.828373 15.926908,16.657724 0 0 0 1.29501,-0.968415 15.926908,16.657724 0 0 0 1.19579,-1.099158 15.926908,16.657724 0 0 0 1.08521,-1.218012 15.926908,16.657724 0 0 0 0.96325,-1.325502 c 0.20505,-0.383058 0.78159,-1.055145 1.01492,-1.420069 0.29993,-0.458362 0.62159,-0.900747 0.96377,-1.325499 0.34208,-0.424844 0.70427,-0.83153 1.0852,-1.218531 0.38084,-0.386828 0.77994,-0.753501 1.1958,-1.098642 0.41595,-0.345358 0.84816,-0.66874 1.29501,-0.968931 0.44677,-0.300024 0.90761,-0.576492 1.38079,-0.828373 0.47324,-0.251881 0.95823,-0.478854 1.45314,-0.680064 0.49499,-0.20125 0.99929,-0.376478 1.51102,-0.525031 0.51166,-0.148622 1.0301,-0.270386 1.55339,-0.364837 0.52323,-0.09434 1.05065,-0.161261 1.58027,-0.200504 0.37493,-0.02785 0.75068,-0.04181 1.12655,-0.04186 0.30785,0.0067 0.61545,0.02273 0.92242,0.04806 -0.0993,-0.08082 -0.19961,-0.160409 -0.30076,-0.238747 -0.43818,-0.313727 -0.89108,-0.60434 -1.35702,-0.870746 -0.46616,-0.266187 -0.94477,-0.507817 -1.43402,-0.723987 -0.48909,-0.216297 -0.98822,-0.406877 -1.49552,-0.571024 -0.50729,-0.164095 -1.02211,-0.301554 -1.54254,-0.411861 -0.52039,-0.110419 -1.04573,-0.193548 -1.57406,-0.249081 -0.52837,-0.05544 -1.05906,-0.08321 -1.59008,-0.0832 -0.14631,0.0034 -0.29257,0.0089 -0.43874,0.01654 a 15.926908,16.657724 0 0 0 -0.68781,0.02532 15.926908,16.657724 0 0 0 -1.58027,0.200504 15.926908,16.657724 0 0 0 -0.43718,0.102836 15.926908,16.657724 0 0 0 -1.11621,0.262001 15.926908,16.657724 0 0 0 -0.83406,0.289904 15.926908,16.657724 0 0 0 -0.67696,0.235127 15.926908,16.657724 0 0 0 -1.45314,0.680064 15.926908,16.657724 0 0 0 -0.95446,0.572574 15.926908,16.657724 0 0 1 -0.83406,0.289904 15.926908,16.657724 0 0 1 -1.5534,0.364837 15.926908,16.657724 0 0 1 -1.58026,0.200504 15.926908,16.657724 0 0 1 -1.12655,0.04186 15.926908,16.657724 0 0 1 -1.59008,-0.0832 15.926908,16.657724 0 0 1 -1.57458,-0.249081 15.926908,16.657724 0 0 1 -1.54254,-0.411861 15.926908,16.657724 0 0 1 -1.495,-0.571024 15.926908,16.657724 0 0 1 -1.43402,-0.723987 15.926908,16.657724 0 0 1 -1.35702,-0.87023 15.926908,16.657724 0 0 1 -1.26762,-1.00769 15.926908,16.657724 0 0 1 -0.27544,-0.268719 15.926908,16.657724 0 0 1 -0.88935,-0.866613 15.926908,16.657724 0 0 1 -1.05058,-1.250569 15.926908,16.657724 0 0 1 -0.92604,-1.354439 15.926908,16.657724 0 0 1 -0.7922,-1.444358 15.926908,16.657724 0 0 1 -0.65009,-1.519804 15.926908,16.657724 0 0 1 -0.5023,-1.580263 15.926908,16.657724 0 0 1 -0.3483,-1.624709 15.926908,16.657724 0 0 1 -0.002,-0.01188 z m 28.34297,10.783837 c -0.38083,0.387006 -0.77992,0.753849 -1.19579,1.099159 -0.38298,0.31514 -0.77958,0.611727 -1.18856,0.888833 a 15.926908,16.657724 0 0 0 1.18856,-0.888833 15.926908,16.657724 0 0 0 1.19579,-1.099159 z m -2.37918,2.139921 c -1e-5,0.555358 -0.0266,1.110366 -0.0796,1.662949 -0.0531,0.552614 -0.13263,1.102103 -0.23823,1.646409 -0.10548,0.544134 -0.2369,1.082416 -0.39378,1.612823 -0.15685,0.530604 -0.33898,1.052672 -0.5457,1.564246 a 15.926908,16.657724 0 0 0 0.5457,-1.564246 15.926908,16.657724 0 0 0 0.39378,-1.612823 15.926908,16.657724 0 0 0 0.23823,-1.646409 15.926908,16.657724 0 0 0 0.0796,-1.662949 z m -1.26091,6.494695 c -0.2059,0.508733 -0.43565,1.006547 -0.68884,1.491383 -0.20507,0.382881 -0.42452,0.757139 -0.65785,1.121894 a 15.926908,16.657724 0 0 0 0.65785,-1.121894 15.926908,16.657724 0 0 0 0.68884,-1.491383 z"
         style="fill:#ff5555;fill-opacity:1;stroke:none;stroke-width:0.31753197;stroke-opacity:1" />
      <path
         id="path1473"
         d="m 134.40628,29.189949 a 36.523048,36.523048 0 0 0 -2.58331,0.09147 36.523048,36.523048 0 0 0 -3.62458,0.439766 36.523048,36.523048 0 0 0 -3.56206,0.799436 36.523048,36.523048 0 0 0 -3.46439,1.15135 36.523048,36.523048 0 0 0 -3.33261,1.491382 36.523048,36.523048 0 0 0 -3.16673,1.816426 36.523048,36.523048 0 0 0 -2.96933,2.123384 36.523048,36.523048 0 0 0 -2.74298,2.409672 36.523048,36.523048 0 0 0 -2.48822,2.671156 36.523048,36.523048 0 0 0 -2.20969,2.906282 36.523048,36.523048 0 0 0 -1.27899,2.086178 36.523048,36.523048 0 0 0 -0.6289,1.026293 36.523048,36.523048 0 0 0 -1.58802,3.287138 36.523048,36.523048 0 0 0 -1.252119,3.429764 36.523048,36.523048 0 0 0 -0.903304,3.537252 36.523048,36.523048 0 0 0 -0.545187,3.609599 36.523048,36.523048 0 0 0 -0.182418,3.646289 36.523048,36.523048 0 0 0 0.09147,2.583823 36.523048,36.523048 0 0 0 0.439767,3.624067 36.523048,36.523048 0 0 0 0.799433,3.562056 36.523048,36.523048 0 0 0 1.151348,3.464388 36.523048,36.523048 0 0 0 1.49138,3.332615 36.523048,36.523048 0 0 0 1.81643,3.166732 36.523048,36.523048 0 0 0 2.12338,2.969326 36.523048,36.523048 0 0 0 1.53634,1.749248 36.523048,36.523048 0 0 0 0.87334,0.993738 36.523048,36.523048 0 0 0 2.67115,2.488221 36.523048,36.523048 0 0 0 2.90628,2.209683 36.523048,36.523048 0 0 0 3.11247,1.907895 36.523048,36.523048 0 0 0 3.28714,1.58801 36.523048,36.523048 0 0 0 3.42977,1.252122 36.523048,36.523048 0 0 0 3.53725,0.90331 36.523048,36.523048 0 0 0 3.6096,0.54518 36.523048,36.523048 0 0 0 3.64629,0.18242 36.523048,36.523048 0 0 0 2.5833,-0.0915 36.523048,36.523048 0 0 0 3.62459,-0.43976 36.523048,36.523048 0 0 0 3.56205,-0.79944 36.523048,36.523048 0 0 0 0.15555,-0.0517 24.216218,24.216218 0 0 0 0.63717,-0.45578 24.216218,24.216218 0 0 0 1.81901,-1.597322 24.216218,24.216218 0 0 0 1.65003,-1.77147 24.216218,24.216218 0 0 0 1.46451,-1.927009 24.216218,24.216218 0 0 0 1.26555,-2.063438 24.216218,24.216218 0 0 0 1.05265,-2.179714 24.216218,24.216218 0 0 0 0.82993,-2.273763 24.216218,24.216218 0 0 0 0.59893,-2.345592 24.216218,24.216218 0 0 0 0.23047,-1.525489 24.216218,24.216218 0 0 0 0.13126,-0.867646 24.216218,24.216218 0 0 0 0.12092,-2.41794 24.216218,24.216218 0 0 0 -0.0605,-1.712558 24.216218,24.216218 0 0 0 -0.29197,-2.403469 24.216218,24.216218 0 0 0 -0.52968,-2.361615 24.216218,24.216218 0 0 0 -0.76326,-2.297018 24.216218,24.216218 0 0 0 -0.10594,-0.236159 24.216218,24.216218 0 0 1 -0.7214,1.977655 24.216218,24.216218 0 0 1 -1.05265,2.179195 24.216218,24.216218 0 0 1 -1.26555,2.063957 24.216218,24.216218 0 0 1 -1.46503,1.927016 24.216218,24.216218 0 0 1 -1.64951,1.770951 24.216218,24.216218 0 0 1 -1.81902,1.597835 24.216218,24.216218 0 0 1 -1.96886,1.407665 24.216218,24.216218 0 0 1 -2.09962,1.204579 24.216218,24.216218 0 0 1 -2.20917,0.988568 24.216218,24.216218 0 0 1 -2.29753,0.763262 24.216218,24.216218 0 0 1 -2.36162,0.530201 24.216218,24.216218 0 0 1 -2.40295,0.291971 24.216218,24.216218 0 0 1 -1.71307,0.06046 24.216218,24.216218 0 0 1 -2.41743,-0.120922 24.216218,24.216218 0 0 1 -2.39365,-0.361736 24.216218,24.216218 0 0 1 -1.86655,-0.476456 26.453825,26.453825 0 0 1 -1.71101,-1.049549 26.453825,26.453825 0 0 1 -2.1053,-1.60042 26.453825,26.453825 0 0 1 -1.93476,-1.802474 26.453825,26.453825 0 0 1 -1.74511,-1.986441 26.453825,26.453825 0 0 1 -1.53841,-2.150774 26.453825,26.453825 0 0 1 -1.31568,-2.293917 26.453825,26.453825 0 0 1 -1.08004,-2.413288 26.453825,26.453825 0 0 1 -0.83354,-2.509409 26.453825,26.453825 0 0 1 -0.57929,-2.580203 26.453825,26.453825 0 0 1 -0.19534,-1.606622 26.453825,26.453825 0 0 1 -0.12351,-1.018542 26.453825,26.453825 0 0 1 -0.0661,-1.871202 26.453825,26.453825 0 0 1 0.1323,-2.641182 26.453825,26.453825 0 0 1 0.3948,-2.614311 26.453825,26.453825 0 0 1 0.38137,-1.493967 26.453825,26.453825 0 0 1 0.27286,-1.068152 26.453825,26.453825 0 0 1 0.90692,-2.484086 26.453825,26.453825 0 0 1 1.15031,-2.380731 26.453825,26.453825 0 0 1 1.38183,-2.254644 26.453825,26.453825 0 0 1 1.60042,-2.104782 26.453825,26.453825 0 0 1 1.80248,-1.934766 26.453825,26.453825 0 0 1 1.98644,-1.745112 26.453825,26.453825 0 0 1 2.15129,-1.538406 26.453825,26.453825 0 0 1 2.2934,-1.315683 26.453825,26.453825 0 0 1 1.53324,-0.686263 24.216218,24.216218 0 0 1 2.20503,-0.267685 24.216218,24.216218 0 0 1 1.71307,-0.06046 24.216218,24.216218 0 0 1 2.41743,0.120923 24.216218,24.216218 0 0 1 2.39365,0.361733 24.216218,24.216218 0 0 1 2.34508,0.598932 24.216218,24.216218 0 0 1 2.27428,0.829921 24.216218,24.216218 0 0 1 2.17919,1.05265 24.216218,24.216218 0 0 1 2.06396,1.265555 24.216218,24.216218 0 0 1 1.92701,1.464511 24.216218,24.216218 0 0 1 1.77095,1.650029 24.216218,24.216218 0 0 1 1.59784,1.819011 24.216218,24.216218 0 0 1 0.031,0.04341 24.216218,24.216218 0 0 0 0.12351,-0.256315 24.216218,24.216218 0 0 0 0.83044,-2.273763 24.216218,24.216218 0 0 0 0.59841,-2.345076 24.216218,24.216218 0 0 0 0.29662,-1.964222 24.216218,24.216218 0 0 0 0.0651,-0.429432 24.216218,24.216218 0 0 0 0.12144,-2.417421 24.216218,24.216218 0 0 0 -0.061,-1.713074 24.216218,24.216218 0 0 0 -0.29146,-2.402953 24.216218,24.216218 0 0 0 -0.5302,-2.361616 24.216218,24.216218 0 0 0 -0.51211,-1.540989 36.523048,36.523048 0 0 0 -0.3669,-0.177252 36.523048,36.523048 0 0 0 -3.42976,-1.252119 36.523048,36.523048 0 0 0 -3.53726,-0.903304 36.523048,36.523048 0 0 0 -3.6096,-0.545187 36.523048,36.523048 0 0 0 -3.64629,-0.182417 z"
         style="fill:#306998;fill-opacity:1;stroke:none;stroke-width:0.26458332;stroke-opacity:1" />
      <path
         id="path1475"
         d="m 139.53864,88.369558 a 4.8481577,3.6595997 0 0 1 -0.34313,-0.0093 4.8481577,3.6595997 0 0 1 -0.4811,-0.04392 4.8481577,3.6595997 0 0 1 -0.47284,-0.0801 4.8481577,3.6595997 0 0 1 -0.45992,-0.115755 4.8481577,3.6595997 0 0 1 -0.44236,-0.149344 4.8481577,3.6595997 0 0 1 -0.0884,-0.03824 4.0925646,5.5541949 0 0 0 0.0481,-0.0098 4.0925646,5.5541949 0 0 0 0.39636,-0.137459 4.0925646,5.5541949 0 0 0 0.38396,-0.190169 4.0925646,5.5541949 0 0 0 0.36845,-0.241848 4.0925646,5.5541949 0 0 0 0.34882,-0.289904 4.0925646,5.5541949 0 0 0 0.32556,-0.335896 4.0925646,5.5541949 0 0 0 0.29972,-0.378788 4.0925646,5.5541949 0 0 0 0.26975,-0.417029 4.0925646,5.5541949 0 0 0 0.23772,-0.451651 4.0925646,5.5541949 0 0 0 0.2036,-0.481627 4.0925646,5.5541949 0 0 0 0.16743,-0.506428 4.0925646,5.5541949 0 0 0 0.12868,-0.5271 4.0925646,5.5541949 0 0 0 0.0899,-0.541568 4.0925646,5.5541949 0 0 0 0.0491,-0.551389 4.0925646,5.5541949 0 0 0 0.0103,-0.39274 4.0925646,5.5541949 0 0 0 -0.0207,-0.554487 4.0925646,5.5541949 0 0 0 -0.061,-0.548804 4.0925646,5.5541949 0 0 0 -0.0486,-0.258384 4.0925646,5.5541949 0 0 0 -0.0527,-0.279569 4.0925646,5.5541949 0 0 0 -0.14004,-0.521415 4.0925646,5.5541949 0 0 0 -0.17829,-0.500226 4.0925646,5.5541949 0 0 0 -0.21342,-0.473358 4.0925646,5.5541949 0 0 0 -0.24753,-0.441833 4.0925646,5.5541949 0 0 0 -0.0434,-0.06305 4.0925646,5.5541949 0 0 1 0.0134,-10e-4 4.0925646,5.5541949 0 0 1 0.2899,0.01395 4.0925646,5.5541949 0 0 1 0.40566,0.06666 4.0925646,5.5541949 0 0 1 0.39946,0.121957 4.0925646,5.5541949 0 0 1 0.38809,0.174667 4.0925646,5.5541949 0 0 1 0.37362,0.226859 4.0925646,5.5541949 0 0 1 0.3545,0.276469 4.0925646,5.5541949 0 0 1 0.3328,0.322977 4.0925646,5.5541949 0 0 1 0.30747,0.366387 4.0925646,5.5541949 0 0 1 0.27905,0.406175 4.0925646,5.5541949 0 0 1 0.24754,0.441836 4.0925646,5.5541949 0 0 1 0.21342,0.473355 4.0925646,5.5541949 0 0 1 0.17828,0.500227 4.0925646,5.5541949 0 0 1 0.0848,0.316261 4.0925646,5.5541949 0 0 1 0.0553,0.205156 4.0925646,5.5541949 0 0 1 0.10129,0.53795 4.0925646,5.5541949 0 0 1 0.061,0.548804 4.0925646,5.5541949 0 0 1 0.0207,0.554488 4.0925646,5.5541949 0 0 1 -0.0103,0.392742 4.0925646,5.5541949 0 0 1 -0.0491,0.551386 4.0925646,5.5541949 0 0 1 -0.0899,0.541571 4.0925646,5.5541949 0 0 1 -0.12867,0.527097 4.0925646,5.5541949 0 0 1 -0.16743,0.506431 4.0925646,5.5541949 0 0 1 -0.10801,0.254765 4.8481577,3.6595997 0 0 1 -0.10904,0.09405 4.8481577,3.6595997 0 0 1 -0.3545,0.249081 4.8481577,3.6595997 0 0 1 -0.38602,0.221692 4.8481577,3.6595997 0 0 1 -0.41289,0.191204 4.8481577,3.6595997 0 0 1 -0.43667,0.159162 4.8481577,3.6595997 0 0 1 -0.45527,0.125058 4.8481577,3.6595997 0 0 1 -0.46922,0.09095 4.8481577,3.6595997 0 0 1 -0.47904,0.05426 4.8481577,3.6595997 0 0 1 -0.48421,0.01861 z"
         style="fill:#c8b7b7;fill-opacity:1;stroke:none;stroke-width:0.26458332;stroke-opacity:1" />
      <path
         id="path1477"
         d="m 138.53019,40.353826 a 4.8481577,3.6595997 0 0 0 -0.34313,0.0093 4.8481577,3.6595997 0 0 0 -0.48111,0.04392 4.8481577,3.6595997 0 0 0 -0.47284,0.0801 4.8481577,3.6595997 0 0 0 -0.45992,0.115755 4.8481577,3.6595997 0 0 0 -0.44235,0.149344 4.8481577,3.6595997 0 0 0 -0.0884,0.03824 4.0925646,5.5541949 0 0 1 0.0481,0.0098 4.0925646,5.5541949 0 0 1 0.39636,0.137459 4.0925646,5.5541949 0 0 1 0.38396,0.190169 4.0925646,5.5541949 0 0 1 0.36845,0.241848 4.0925646,5.5541949 0 0 1 0.34881,0.289904 4.0925646,5.5541949 0 0 1 0.32557,0.335896 4.0925646,5.5541949 0 0 1 0.29972,0.378788 4.0925646,5.5541949 0 0 1 0.26975,0.417029 4.0925646,5.5541949 0 0 1 0.23771,0.451651 4.0925646,5.5541949 0 0 1 0.20361,0.481627 4.0925646,5.5541949 0 0 1 0.16743,0.506428 4.0925646,5.5541949 0 0 1 0.12868,0.5271 4.0925646,5.5541949 0 0 1 0.0899,0.541568 4.0925646,5.5541949 0 0 1 0.0491,0.551389 4.0925646,5.5541949 0 0 1 0.0103,0.39274 4.0925646,5.5541949 0 0 1 -0.0207,0.554487 4.0925646,5.5541949 0 0 1 -0.061,0.548804 4.0925646,5.5541949 0 0 1 -0.0486,0.258384 4.0925646,5.5541949 0 0 1 -0.0527,0.279569 4.0925646,5.5541949 0 0 1 -0.14004,0.521415 4.0925646,5.5541949 0 0 1 -0.17828,0.500226 4.0925646,5.5541949 0 0 1 -0.21342,0.473358 4.0925646,5.5541949 0 0 1 -0.24754,0.441833 4.0925646,5.5541949 0 0 1 -0.0434,0.06305 4.0925646,5.5541949 0 0 0 0.0134,10e-4 4.0925646,5.5541949 0 0 0 0.2899,-0.01395 4.0925646,5.5541949 0 0 0 0.40566,-0.06666 4.0925646,5.5541949 0 0 0 0.39946,-0.121957 4.0925646,5.5541949 0 0 0 0.38809,-0.174667 4.0925646,5.5541949 0 0 0 0.37362,-0.226859 4.0925646,5.5541949 0 0 0 0.3545,-0.276469 4.0925646,5.5541949 0 0 0 0.33279,-0.322977 4.0925646,5.5541949 0 0 0 0.30748,-0.366387 4.0925646,5.5541949 0 0 0 0.27905,-0.406175 4.0925646,5.5541949 0 0 0 0.24753,-0.441836 4.0925646,5.5541949 0 0 0 0.21343,-0.473355 4.0925646,5.5541949 0 0 0 0.17828,-0.500227 4.0925646,5.5541949 0 0 0 0.0847,-0.316261 4.0925646,5.5541949 0 0 0 0.0553,-0.205156 4.0925646,5.5541949 0 0 0 0.10129,-0.53795 4.0925646,5.5541949 0 0 0 0.061,-0.548804 4.0925646,5.5541949 0 0 0 0.0207,-0.554488 4.0925646,5.5541949 0 0 0 -0.0103,-0.392742 4.0925646,5.5541949 0 0 0 -0.0491,-0.551386 4.0925646,5.5541949 0 0 0 -0.0899,-0.541571 4.0925646,5.5541949 0 0 0 -0.12868,-0.527097 4.0925646,5.5541949 0 0 0 -0.16743,-0.506431 4.0925646,5.5541949 0 0 0 -0.108,-0.254765 4.8481577,3.6595997 0 0 0 -0.10904,-0.09405 4.8481577,3.6595997 0 0 0 -0.3545,-0.249081 4.8481577,3.6595997 0 0 0 -0.38602,-0.221692 4.8481577,3.6595997 0 0 0 -0.4129,-0.191204 4.8481577,3.6595997 0 0 0 -0.43666,-0.159162 4.8481577,3.6595997 0 0 0 -0.45527,-0.125058 4.8481577,3.6595997 0 0 0 -0.46922,-0.09095 4.8481577,3.6595997 0 0 0 -0.47904,-0.05426 4.8481577,3.6595997 0 0 0 -0.48421,-0.01861 z"
         style="fill:#c8b7b7;fill-opacity:1;stroke:none;stroke-width:0.26458332;stroke-opacity:1" />
    </g>
    <g
       transform="translate(0,-91.777344)"
       id="g1534">
      <circle
         r="36.528755"
         cy="247.63129"
         cx="45.372349"
         id="circle1504"
         style="fill:#333333;fill-opacity:1;stroke:none;stroke-width:0.25273949;stroke-opacity:1" />
      <path
         style="fill:#b3b3b3;fill-opacity:1;stroke:none;stroke-width:0.26458332;stroke-opacity:1"
         d="m 51.820181,269.41108 a 4.8481577,3.6595997 0 0 1 -0.34313,-0.009 4.8481577,3.6595997 0 0 1 -0.481108,-0.0439 4.8481577,3.6595997 0 0 1 -0.472839,-0.0801 4.8481577,3.6595997 0 0 1 -0.45992,-0.11575 4.8481577,3.6595997 0 0 1 -0.442352,-0.14935 4.8481577,3.6595997 0 0 1 -0.08836,-0.0382 4.0925646,5.5541949 0 0 0 0.04806,-0.01 4.0925646,5.5541949 0 0 0 0.396359,-0.13746 4.0925646,5.5541949 0 0 0 0.383955,-0.19016 4.0925646,5.5541949 0 0 0 0.368454,-0.24185 4.0925646,5.5541949 0 0 0 0.348813,-0.28991 4.0925646,5.5541949 0 0 0 0.325562,-0.33589 4.0925646,5.5541949 0 0 0 0.299725,-0.37879 4.0925646,5.5541949 0 0 0 0.269751,-0.41703 4.0925646,5.5541949 0 0 0 0.237712,-0.45165 4.0925646,5.5541949 0 0 0 0.203605,-0.48163 4.0925646,5.5541949 0 0 0 0.167431,-0.50643 4.0925646,5.5541949 0 0 0 0.128675,-0.5271 4.0925646,5.5541949 0 0 0 0.08992,-0.54156 4.0925646,5.5541949 0 0 0 0.04909,-0.55139 4.0925646,5.5541949 0 0 0 0.01033,-0.39274 4.0925646,5.5541949 0 0 0 -0.02067,-0.55449 4.0925646,5.5541949 0 0 0 -0.06098,-0.5488 4.0925646,5.5541949 0 0 0 -0.04858,-0.25839 4.0925646,5.5541949 0 0 0 -0.05271,-0.27957 4.0925646,5.5541949 0 0 0 -0.14004,-0.52141 4.0925646,5.5541949 0 0 0 -0.178284,-0.50023 4.0925646,5.5541949 0 0 0 -0.213424,-0.47336 4.0925646,5.5541949 0 0 0 -0.247532,-0.44183 4.0925646,5.5541949 0 0 0 -0.04341,-0.063 4.0925646,5.5541949 0 0 1 0.01344,-10e-4 4.0925646,5.5541949 0 0 1 0.289904,0.014 4.0925646,5.5541949 0 0 1 0.405661,0.0667 4.0925646,5.5541949 0 0 1 0.399457,0.12196 4.0925646,5.5541949 0 0 1 0.388092,0.17466 4.0925646,5.5541949 0 0 1 0.373621,0.22686 4.0925646,5.5541949 0 0 1 0.354498,0.27647 4.0925646,5.5541949 0 0 1 0.332796,0.32298 4.0925646,5.5541949 0 0 1 0.307475,0.36639 4.0925646,5.5541949 0 0 1 0.279053,0.40617 4.0925646,5.5541949 0 0 1 0.247531,0.44184 4.0925646,5.5541949 0 0 1 0.213424,0.47335 4.0925646,5.5541949 0 0 1 0.178284,0.50023 4.0925646,5.5541949 0 0 1 0.08475,0.31626 4.0925646,5.5541949 0 0 1 0.05529,0.20516 4.0925646,5.5541949 0 0 1 0.101288,0.53795 4.0925646,5.5541949 0 0 1 0.06098,0.5488 4.0925646,5.5541949 0 0 1 0.02067,0.55449 4.0925646,5.5541949 0 0 1 -0.01033,0.39274 4.0925646,5.5541949 0 0 1 -0.04909,0.55139 4.0925646,5.5541949 0 0 1 -0.08992,0.54157 4.0925646,5.5541949 0 0 1 -0.128675,0.52709 4.0925646,5.5541949 0 0 1 -0.167431,0.50644 4.0925646,5.5541949 0 0 1 -0.108006,0.25476 4.8481577,3.6595997 0 0 1 -0.109037,0.0941 4.8481577,3.6595997 0 0 1 -0.3545,0.24908 4.8481577,3.6595997 0 0 1 -0.386021,0.22169 4.8481577,3.6595997 0 0 1 -0.412896,0.19121 4.8481577,3.6595997 0 0 1 -0.436666,0.15916 4.8481577,3.6595997 0 0 1 -0.455268,0.12506 4.8481577,3.6595997 0 0 1 -0.469223,0.091 4.8481577,3.6595997 0 0 1 -0.479041,0.0543 4.8481577,3.6595997 0 0 1 -0.484209,0.0186 z"
         id="path1506" />
      <path
         style="fill:#b3b3b3;fill-opacity:1;stroke:none;stroke-width:0.26458332;stroke-opacity:1"
         d="m 46.950948,222.37568 a 4.8481577,3.6595997 0 0 0 -0.34313,0.009 4.8481577,3.6595997 0 0 0 -0.481108,0.0439 4.8481577,3.6595997 0 0 0 -0.472839,0.0801 4.8481577,3.6595997 0 0 0 -0.45992,0.11576 4.8481577,3.6595997 0 0 0 -0.442352,0.14934 4.8481577,3.6595997 0 0 0 -0.08836,0.0382 4.0925646,5.5541949 0 0 1 0.04806,0.01 4.0925646,5.5541949 0 0 1 0.396359,0.13746 4.0925646,5.5541949 0 0 1 0.383955,0.19017 4.0925646,5.5541949 0 0 1 0.368454,0.24185 4.0925646,5.5541949 0 0 1 0.348813,0.2899 4.0925646,5.5541949 0 0 1 0.325562,0.3359 4.0925646,5.5541949 0 0 1 0.299725,0.37878 4.0925646,5.5541949 0 0 1 0.269751,0.41703 4.0925646,5.5541949 0 0 1 0.237712,0.45165 4.0925646,5.5541949 0 0 1 0.203605,0.48163 4.0925646,5.5541949 0 0 1 0.167431,0.50643 4.0925646,5.5541949 0 0 1 0.128675,0.5271 4.0925646,5.5541949 0 0 1 0.08992,0.54157 4.0925646,5.5541949 0 0 1 0.04909,0.55139 4.0925646,5.5541949 0 0 1 0.01033,0.39274 4.0925646,5.5541949 0 0 1 -0.02067,0.55448 4.0925646,5.5541949 0 0 1 -0.06098,0.54881 4.0925646,5.5541949 0 0 1 -0.04858,0.25838 4.0925646,5.5541949 0 0 1 -0.05271,0.27957 4.0925646,5.5541949 0 0 1 -0.14004,0.52141 4.0925646,5.5541949 0 0 1 -0.178284,0.50023 4.0925646,5.5541949 0 0 1 -0.213425,0.47336 4.0925646,5.5541949 0 0 1 -0.247531,0.44183 4.0925646,5.5541949 0 0 1 -0.04341,0.0631 4.0925646,5.5541949 0 0 0 0.01344,0.001 4.0925646,5.5541949 0 0 0 0.289904,-0.0139 4.0925646,5.5541949 0 0 0 0.405662,-0.0667 4.0925646,5.5541949 0 0 0 0.399457,-0.12196 4.0925646,5.5541949 0 0 0 0.388091,-0.17466 4.0925646,5.5541949 0 0 0 0.373621,-0.22686 4.0925646,5.5541949 0 0 0 0.354499,-0.27647 4.0925646,5.5541949 0 0 0 0.332796,-0.32298 4.0925646,5.5541949 0 0 0 0.307475,-0.36638 4.0925646,5.5541949 0 0 0 0.279053,-0.40618 4.0925646,5.5541949 0 0 0 0.247531,-0.44184 4.0925646,5.5541949 0 0 0 0.213424,-0.47335 4.0925646,5.5541949 0 0 0 0.178284,-0.50023 4.0925646,5.5541949 0 0 0 0.08475,-0.31626 4.0925646,5.5541949 0 0 0 0.05529,-0.20515 4.0925646,5.5541949 0 0 0 0.101288,-0.53795 4.0925646,5.5541949 0 0 0 0.06098,-0.54881 4.0925646,5.5541949 0 0 0 0.02067,-0.55449 4.0925646,5.5541949 0 0 0 -0.01033,-0.39274 4.0925646,5.5541949 0 0 0 -0.04909,-0.55138 4.0925646,5.5541949 0 0 0 -0.08992,-0.54158 4.0925646,5.5541949 0 0 0 -0.128675,-0.52709 4.0925646,5.5541949 0 0 0 -0.167431,-0.50643 4.0925646,5.5541949 0 0 0 -0.108006,-0.25477 4.8481577,3.6595997 0 0 0 -0.109037,-0.0941 4.8481577,3.6595997 0 0 0 -0.3545,-0.24908 4.8481577,3.6595997 0 0 0 -0.386021,-0.22169 4.8481577,3.6595997 0 0 0 -0.412896,-0.19121 4.8481577,3.6595997 0 0 0 -0.436666,-0.15916 4.8481577,3.6595997 0 0 0 -0.455268,-0.12506 4.8481577,3.6595997 0 0 0 -0.469223,-0.091 4.8481577,3.6595997 0 0 0 -0.479041,-0.0543 4.8481577,3.6595997 0 0 0 -0.484209,-0.0186 z"
         id="path1508" />
      <path
         id="path1510"
         d="m 20.973832,238.87104 a 15.926908,16.657724 0 0 0 -1.059883,0.97411 15.926908,16.657724 0 0 0 -1.085205,1.21801 15.926908,16.657724 0 0 0 -0.96325,1.3255 15.926908,16.657724 0 0 0 -0.83199,1.41955 15.926908,16.657724 0 0 0 -0.692465,1.49965 15.926908,16.657724 0 0 0 -0.546219,1.56425 15.926908,16.657724 0 0 0 -0.393774,1.61282 15.926908,16.657724 0 0 0 -0.237712,1.64641 15.926908,16.657724 0 0 0 -0.07958,1.66346 15.926908,16.657724 0 0 0 0.03979,1.17823 15.926908,16.657724 0 0 0 0.19172,1.65261 15.926908,16.657724 0 0 0 0.348816,1.62471 15.926908,16.657724 0 0 0 0.501779,1.58026 15.926908,16.657724 0 0 0 0.650606,1.5198 15.926908,16.657724 0 0 0 0.792199,1.44436 15.926908,16.657724 0 0 0 0.926042,1.35444 15.926908,16.657724 0 0 0 1.050581,1.25109 15.926908,16.657724 0 0 0 1.164788,1.13481 15.926908,16.657724 0 0 0 1.267622,1.00769 15.926908,16.657724 0 0 0 1.357024,0.87023 15.926908,16.657724 0 0 0 1.433499,0.7245 15.926908,16.657724 0 0 0 1.49552,0.57051 15.926908,16.657724 0 0 0 1.54254,0.41238 15.926908,16.657724 0 0 0 1.57406,0.24857 15.926908,16.657724 0 0 0 1.59008,0.0832 15.926908,16.657724 0 0 0 1.12655,-0.0419 15.926908,16.657724 0 0 0 1.58078,-0.20051 15.926908,16.657724 0 0 0 0.43667,-0.10283 15.926908,16.657724 0 0 0 1.11673,-0.26201 15.926908,16.657724 0 0 0 1.5105,-0.52503 15.926908,16.657724 0 0 0 1.45314,-0.68006 15.926908,16.657724 0 0 0 1.38131,-0.82837 15.926908,16.657724 0 0 0 1.29501,-0.96842 15.926908,16.657724 0 0 0 1.19579,-1.09916 15.926908,16.657724 0 0 0 1.08521,-1.21801 15.926908,16.657724 0 0 0 0.96325,-1.3255 c 0.20505,-0.38306 0.781591,-1.05515 1.014921,-1.42007 0.29993,-0.45836 0.62159,-0.90075 0.963769,-1.3255 0.342081,-0.42484 0.704271,-0.83153 1.0852,-1.21853 0.38084,-0.38683 0.779941,-0.7535 1.1958,-1.09864 0.415951,-0.34536 0.84816,-0.66874 1.29501,-0.96893 0.44677,-0.30003 0.90761,-0.57649 1.38079,-0.82837 0.47324,-0.25189 0.95823,-0.47886 1.45314,-0.68007 0.49499,-0.20125 0.99929,-0.37648 1.51102,-0.52503 0.51166,-0.14862 1.0301,-0.27039 1.55339,-0.36484 0.52323,-0.0943 1.05065,-0.16126 1.58027,-0.2005 0.37493,-0.0279 0.75068,-0.0418 1.12655,-0.0419 0.30785,0.007 0.61545,0.0227 0.92242,0.0481 -0.0993,-0.0808 -0.19961,-0.16041 -0.30076,-0.23875 -0.43818,-0.31372 -0.89108,-0.60434 -1.357019,-0.87074 -0.466161,-0.26619 -0.94477,-0.50782 -1.43402,-0.72399 -0.48909,-0.2163 -0.98822,-0.40688 -1.49552,-0.57102 -0.50729,-0.1641 -1.02211,-0.30156 -1.54254,-0.41187 -0.52039,-0.11041 -1.04573,-0.19354 -1.574061,-0.24908 -0.52837,-0.0554 -1.05906,-0.0832 -1.59008,-0.0832 -0.14631,0.003 -0.292569,0.009 -0.43874,0.0165 a 15.926908,16.657724 0 0 0 -0.68781,0.0253 15.926908,16.657724 0 0 0 -1.58027,0.20051 15.926908,16.657724 0 0 0 -0.437179,0.10283 15.926908,16.657724 0 0 0 -1.116211,0.262 15.926908,16.657724 0 0 0 -0.83406,0.28991 15.926908,16.657724 0 0 0 -0.67696,0.23513 15.926908,16.657724 0 0 0 -1.45314,0.68006 15.926908,16.657724 0 0 0 -0.954459,0.57257 15.926908,16.657724 0 0 1 -0.83406,0.28991 15.926908,16.657724 0 0 1 -1.5534,0.36483 15.926908,16.657724 0 0 1 -1.58026,0.20051 15.926908,16.657724 0 0 1 -1.12655,0.0419 15.926908,16.657724 0 0 1 -1.590081,-0.0832 15.926908,16.657724 0 0 1 -1.574579,-0.24908 15.926908,16.657724 0 0 1 -1.54254,-0.41186 15.926908,16.657724 0 0 1 -1.495,-0.57103 15.926908,16.657724 0 0 1 -1.43402,-0.72398 15.926908,16.657724 0 0 1 -1.35702,-0.87023 15.926908,16.657724 0 0 1 -1.26762,-1.00769 15.926908,16.657724 0 0 1 -0.27544,-0.26872 15.926908,16.657724 0 0 1 -0.88935,-0.86662 15.926908,16.657724 0 0 1 -1.050583,-1.25057 15.926908,16.657724 0 0 1 -0.926041,-1.35443 15.926908,16.657724 0 0 1 -0.7922,-1.44436 15.926908,16.657724 0 0 1 -0.65009,-1.51981 15.926908,16.657724 0 0 1 -0.502293,-1.58026 15.926908,16.657724 0 0 1 -0.3483,-1.62471 15.926908,16.657724 0 0 1 -0.0016,-0.0119 z M 49.3168,249.65488 c -0.38083,0.38701 -0.779919,0.75385 -1.19579,1.09916 -0.38298,0.31514 -0.77958,0.61173 -1.18856,0.88883 a 15.926908,16.657724 0 0 0 1.18856,-0.88883 15.926908,16.657724 0 0 0 1.19579,-1.09916 z m -2.379179,2.13992 c -1.1e-5,0.55536 -0.0266,1.11037 -0.0796,1.66295 -0.0531,0.55262 -0.13263,1.1021 -0.238231,1.64641 -0.10548,0.54414 -0.236899,1.08242 -0.39378,1.61282 -0.156849,0.53061 -0.338979,1.05268 -0.545699,1.56425 a 15.926908,16.657724 0 0 0 0.545699,-1.56425 15.926908,16.657724 0 0 0 0.39378,-1.61282 15.926908,16.657724 0 0 0 0.238231,-1.64641 15.926908,16.657724 0 0 0 0.0796,-1.66295 z m -1.260911,6.4947 c -0.2059,0.50873 -0.43565,1.00654 -0.68884,1.49138 -0.20507,0.38288 -0.42452,0.75714 -0.65785,1.1219 a 15.926908,16.657724 0 0 0 0.65785,-1.1219 15.926908,16.657724 0 0 0 0.68884,-1.49138 z"
         style="fill:#008033;fill-opacity:1;stroke:none;stroke-width:0.31753197;stroke-opacity:1" />
      <path
         id="path1512"
         d="m 45.372347,211.10845 a 36.523048,36.523048 0 0 0 -2.583304,0.0915 36.523048,36.523048 0 0 0 -3.624585,0.43977 36.523048,36.523048 0 0 0 -3.562057,0.79943 36.523048,36.523048 0 0 0 -3.464388,1.15135 36.523048,36.523048 0 0 0 -3.332612,1.49139 36.523048,36.523048 0 0 0 -3.166732,1.81642 36.523048,36.523048 0 0 0 -2.969328,2.12339 36.523048,36.523048 0 0 0 -2.742986,2.40967 36.523048,36.523048 0 0 0 -2.488218,2.67115 36.523048,36.523048 0 0 0 -2.209687,2.90629 36.523048,36.523048 0 0 0 -1.27899,2.08617 36.523048,36.523048 0 0 0 -0.628901,1.0263 36.523048,36.523048 0 0 0 -1.588019,3.28713 36.523048,36.523048 0 0 0 -1.252119,3.42977 36.523048,36.523048 0 0 0 -0.9033033,3.53725 36.523048,36.523048 0 0 0 -0.5451869,3.6096 36.523048,36.523048 0 0 0 -0.1824178,3.64629 36.523048,36.523048 0 0 0 0.091467,2.58382 36.523048,36.523048 0 0 0 0.4397663,3.62407 36.523048,36.523048 0 0 0 0.7994327,3.56205 36.523048,36.523048 0 0 0 1.151353,3.46439 36.523048,36.523048 0 0 0 1.491383,3.33262 36.523048,36.523048 0 0 0 1.816425,3.16673 36.523048,36.523048 0 0 0 2.123384,2.96932 36.523048,36.523048 0 0 0 1.53634,1.74925 36.523048,36.523048 0 0 0 0.873332,0.99374 36.523048,36.523048 0 0 0 2.671156,2.48822 36.523048,36.523048 0 0 0 2.906281,2.20968 36.523048,36.523048 0 0 0 3.112471,1.9079 36.523048,36.523048 0 0 0 3.287139,1.58801 36.523048,36.523048 0 0 0 3.429764,1.25212 36.523048,36.523048 0 0 0 3.537252,0.90331 36.523048,36.523048 0 0 0 3.609599,0.54518 36.523048,36.523048 0 0 0 3.646289,0.18242 36.523048,36.523048 0 0 0 2.583305,-0.0915 36.523048,36.523048 0 0 0 3.624586,-0.43976 36.523048,36.523048 0 0 0 3.562055,-0.79944 36.523048,36.523048 0 0 0 0.155547,-0.0517 24.216218,24.216218 0 0 0 0.637172,-0.45578 24.216218,24.216218 0 0 0 1.819011,-1.59732 24.216218,24.216218 0 0 0 1.650026,-1.77147 24.216218,24.216218 0 0 0 1.464511,-1.92701 24.216218,24.216218 0 0 0 1.265555,-2.06344 24.216218,24.216218 0 0 0 1.05265,-2.17971 24.216218,24.216218 0 0 0 0.829923,-2.27376 24.216218,24.216218 0 0 0 0.598929,-2.3456 24.216218,24.216218 0 0 0 0.230477,-1.52549 24.216218,24.216218 0 0 0 0.13126,-0.86764 24.216218,24.216218 0 0 0 0.120921,-2.41794 24.216218,24.216218 0 0 0 -0.06046,-1.71256 24.216218,24.216218 0 0 0 -0.291971,-2.40347 24.216218,24.216218 0 0 0 -0.529685,-2.36161 24.216218,24.216218 0 0 0 -0.763259,-2.29702 24.216218,24.216218 0 0 0 -0.105937,-0.23616 24.216218,24.216218 0 0 1 -0.721405,1.97765 24.216218,24.216218 0 0 1 -1.052647,2.1792 24.216218,24.216218 0 0 1 -1.265555,2.06396 24.216218,24.216218 0 0 1 -1.465027,1.92701 24.216218,24.216218 0 0 1 -1.649513,1.77095 24.216218,24.216218 0 0 1 -1.819011,1.59784 24.216218,24.216218 0 0 1 -1.96887,1.40766 24.216218,24.216218 0 0 1 -2.099614,1.20458 24.216218,24.216218 0 0 1 -2.209168,0.98857 24.216218,24.216218 0 0 1 -2.297536,0.76326 24.216218,24.216218 0 0 1 -2.361612,0.5302 24.216218,24.216218 0 0 1 -2.402954,0.29197 24.216218,24.216218 0 0 1 -1.713074,0.0605 24.216218,24.216218 0 0 1 -2.417424,-0.12092 24.216218,24.216218 0 0 1 -2.393651,-0.36173 24.216218,24.216218 0 0 1 -1.866553,-0.47646 26.453825,26.453825 0 0 1 -1.711007,-1.04955 26.453825,26.453825 0 0 1 -2.105298,-1.60042 26.453825,26.453825 0 0 1 -1.934766,-1.80247 26.453825,26.453825 0 0 1 -1.745112,-1.98644 26.453825,26.453825 0 0 1 -1.538406,-2.15078 26.453825,26.453825 0 0 1 -1.315683,-2.29391 26.453825,26.453825 0 0 1 -1.080037,-2.41329 26.453825,26.453825 0 0 1 -0.833541,-2.50941 26.453825,26.453825 0 0 1 -0.579292,-2.5802 26.453825,26.453825 0 0 1 -0.195339,-1.60663 26.453825,26.453825 0 0 1 -0.123505,-1.01854 26.453825,26.453825 0 0 1 -0.06615,-1.8712 26.453825,26.453825 0 0 1 0.132292,-2.64118 26.453825,26.453825 0 0 1 0.394808,-2.61431 26.453825,26.453825 0 0 1 0.381371,-1.49397 26.453825,26.453825 0 0 1 0.272851,-1.06815 26.453825,26.453825 0 0 1 0.906923,-2.48409 26.453825,26.453825 0 0 1 1.150316,-2.38073 26.453825,26.453825 0 0 1 1.381829,-2.25464 26.453825,26.453825 0 0 1 1.600419,-2.10479 26.453825,26.453825 0 0 1 1.802474,-1.93476 26.453825,26.453825 0 0 1 1.986442,-1.74511 26.453825,26.453825 0 0 1 2.15129,-1.53841 26.453825,26.453825 0 0 1 2.2934,-1.31568 26.453825,26.453825 0 0 1 1.533239,-0.68626 24.216218,24.216218 0 0 1 2.205032,-0.26769 24.216218,24.216218 0 0 1 1.713074,-0.0605 24.216218,24.216218 0 0 1 2.417424,0.12092 24.216218,24.216218 0 0 1 2.393654,0.36174 24.216218,24.216218 0 0 1 2.345076,0.59893 24.216218,24.216218 0 0 1 2.274279,0.82992 24.216218,24.216218 0 0 1 2.179195,1.05265 24.216218,24.216218 0 0 1 2.063957,1.26555 24.216218,24.216218 0 0 1 1.927013,1.46451 24.216218,24.216218 0 0 1 1.770951,1.65003 24.216218,24.216218 0 0 1 1.597838,1.81902 24.216218,24.216218 0 0 1 0.031,0.0434 24.216218,24.216218 0 0 0 0.123507,-0.25631 24.216218,24.216218 0 0 0 0.83044,-2.27376 24.216218,24.216218 0 0 0 0.598413,-2.34508 24.216218,24.216218 0 0 0 0.296622,-1.96422 24.216218,24.216218 0 0 0 0.06511,-0.42943 24.216218,24.216218 0 0 0 0.121438,-2.41742 24.216218,24.216218 0 0 0 -0.06098,-1.71308 24.216218,24.216218 0 0 0 -0.291455,-2.40295 24.216218,24.216218 0 0 0 -0.530201,-2.36162 24.216218,24.216218 0 0 0 -0.512111,-1.54099 36.523048,36.523048 0 0 0 -0.366903,-0.17725 36.523048,36.523048 0 0 0 -3.429765,-1.25212 36.523048,36.523048 0 0 0 -3.537252,-0.9033 36.523048,36.523048 0 0 0 -3.609599,-0.54519 36.523048,36.523048 0 0 0 -3.64629,-0.18242 z"
         style="fill:#00d455;fill-opacity:1;stroke:none;stroke-width:0.26458332;stroke-opacity:1" />
      <path
         id="path1514"
         d="m 50.504714,270.28806 a 4.8481577,3.6595997 0 0 1 -0.34313,-0.009 4.8481577,3.6595997 0 0 1 -0.481108,-0.0439 4.8481577,3.6595997 0 0 1 -0.472839,-0.0801 4.8481577,3.6595997 0 0 1 -0.45992,-0.11575 4.8481577,3.6595997 0 0 1 -0.442352,-0.14935 4.8481577,3.6595997 0 0 1 -0.08836,-0.0382 4.0925646,5.5541949 0 0 0 0.04806,-0.01 4.0925646,5.5541949 0 0 0 0.396359,-0.13746 4.0925646,5.5541949 0 0 0 0.383955,-0.19017 4.0925646,5.5541949 0 0 0 0.368454,-0.24184 4.0925646,5.5541949 0 0 0 0.348813,-0.28991 4.0925646,5.5541949 0 0 0 0.325562,-0.3359 4.0925646,5.5541949 0 0 0 0.299725,-0.37878 4.0925646,5.5541949 0 0 0 0.269751,-0.41703 4.0925646,5.5541949 0 0 0 0.237712,-0.45165 4.0925646,5.5541949 0 0 0 0.203605,-0.48163 4.0925646,5.5541949 0 0 0 0.167431,-0.50643 4.0925646,5.5541949 0 0 0 0.128676,-0.5271 4.0925646,5.5541949 0 0 0 0.08992,-0.54157 4.0925646,5.5541949 0 0 0 0.04909,-0.55138 4.0925646,5.5541949 0 0 0 0.01033,-0.39275 4.0925646,5.5541949 0 0 0 -0.02067,-0.55448 4.0925646,5.5541949 0 0 0 -0.06098,-0.54881 4.0925646,5.5541949 0 0 0 -0.04858,-0.25838 4.0925646,5.5541949 0 0 0 -0.05271,-0.27957 4.0925646,5.5541949 0 0 0 -0.140041,-0.52141 4.0925646,5.5541949 0 0 0 -0.178284,-0.50023 4.0925646,5.5541949 0 0 0 -0.213424,-0.47336 4.0925646,5.5541949 0 0 0 -0.247531,-0.44183 4.0925646,5.5541949 0 0 0 -0.04341,-0.063 4.0925646,5.5541949 0 0 1 0.01344,-0.001 4.0925646,5.5541949 0 0 1 0.289904,0.014 4.0925646,5.5541949 0 0 1 0.405662,0.0667 4.0925646,5.5541949 0 0 1 0.399456,0.12196 4.0925646,5.5541949 0 0 1 0.388092,0.17466 4.0925646,5.5541949 0 0 1 0.373621,0.22686 4.0925646,5.5541949 0 0 1 0.354498,0.27647 4.0925646,5.5541949 0 0 1 0.332797,0.32298 4.0925646,5.5541949 0 0 1 0.307474,0.36638 4.0925646,5.5541949 0 0 1 0.279053,0.40618 4.0925646,5.5541949 0 0 1 0.247531,0.44184 4.0925646,5.5541949 0 0 1 0.213425,0.47335 4.0925646,5.5541949 0 0 1 0.178283,0.50023 4.0925646,5.5541949 0 0 1 0.08475,0.31626 4.0925646,5.5541949 0 0 1 0.05529,0.20515 4.0925646,5.5541949 0 0 1 0.101288,0.53795 4.0925646,5.5541949 0 0 1 0.06098,0.54881 4.0925646,5.5541949 0 0 1 0.02067,0.55449 4.0925646,5.5541949 0 0 1 -0.01033,0.39274 4.0925646,5.5541949 0 0 1 -0.04909,0.55138 4.0925646,5.5541949 0 0 1 -0.08992,0.54158 4.0925646,5.5541949 0 0 1 -0.128675,0.52709 4.0925646,5.5541949 0 0 1 -0.167431,0.50643 4.0925646,5.5541949 0 0 1 -0.108006,0.25477 4.8481577,3.6595997 0 0 1 -0.109037,0.094 4.8481577,3.6595997 0 0 1 -0.3545,0.24908 4.8481577,3.6595997 0 0 1 -0.386021,0.22169 4.8481577,3.6595997 0 0 1 -0.412896,0.19121 4.8481577,3.6595997 0 0 1 -0.436666,0.15916 4.8481577,3.6595997 0 0 1 -0.455268,0.12506 4.8481577,3.6595997 0 0 1 -0.469223,0.091 4.8481577,3.6595997 0 0 1 -0.479041,0.0543 4.8481577,3.6595997 0 0 1 -0.484209,0.0186 z"
         style="fill:#c8b7b7;fill-opacity:1;stroke:none;stroke-width:0.26458332;stroke-opacity:1" />
      <path
         id="path1516"
         d="m 49.496262,222.27233 a 4.8481577,3.6595997 0 0 0 -0.34313,0.009 4.8481577,3.6595997 0 0 0 -0.481108,0.0439 4.8481577,3.6595997 0 0 0 -0.472839,0.0801 4.8481577,3.6595997 0 0 0 -0.459919,0.11575 4.8481577,3.6595997 0 0 0 -0.442352,0.14935 4.8481577,3.6595997 0 0 0 -0.08836,0.0382 4.0925646,5.5541949 0 0 1 0.04806,0.01 4.0925646,5.5541949 0 0 1 0.396359,0.13746 4.0925646,5.5541949 0 0 1 0.383955,0.19016 4.0925646,5.5541949 0 0 1 0.368454,0.24185 4.0925646,5.5541949 0 0 1 0.348813,0.28991 4.0925646,5.5541949 0 0 1 0.325562,0.33589 4.0925646,5.5541949 0 0 1 0.299725,0.37879 4.0925646,5.5541949 0 0 1 0.269751,0.41703 4.0925646,5.5541949 0 0 1 0.237712,0.45165 4.0925646,5.5541949 0 0 1 0.203606,0.48163 4.0925646,5.5541949 0 0 1 0.167431,0.50643 4.0925646,5.5541949 0 0 1 0.128675,0.5271 4.0925646,5.5541949 0 0 1 0.08992,0.54156 4.0925646,5.5541949 0 0 1 0.04909,0.55139 4.0925646,5.5541949 0 0 1 0.01033,0.39274 4.0925646,5.5541949 0 0 1 -0.02067,0.55449 4.0925646,5.5541949 0 0 1 -0.06098,0.5488 4.0925646,5.5541949 0 0 1 -0.04858,0.25839 4.0925646,5.5541949 0 0 1 -0.05271,0.27957 4.0925646,5.5541949 0 0 1 -0.140041,0.52141 4.0925646,5.5541949 0 0 1 -0.178284,0.50023 4.0925646,5.5541949 0 0 1 -0.213424,0.47336 4.0925646,5.5541949 0 0 1 -0.247531,0.44183 4.0925646,5.5541949 0 0 1 -0.04341,0.063 4.0925646,5.5541949 0 0 0 0.01344,0.001 4.0925646,5.5541949 0 0 0 0.289904,-0.0139 4.0925646,5.5541949 0 0 0 0.405662,-0.0667 4.0925646,5.5541949 0 0 0 0.399457,-0.12196 4.0925646,5.5541949 0 0 0 0.388091,-0.17467 4.0925646,5.5541949 0 0 0 0.373621,-0.22685 4.0925646,5.5541949 0 0 0 0.354499,-0.27647 4.0925646,5.5541949 0 0 0 0.332796,-0.32298 4.0925646,5.5541949 0 0 0 0.307474,-0.36639 4.0925646,5.5541949 0 0 0 0.279053,-0.40617 4.0925646,5.5541949 0 0 0 0.247531,-0.44184 4.0925646,5.5541949 0 0 0 0.213425,-0.47335 4.0925646,5.5541949 0 0 0 0.178284,-0.50023 4.0925646,5.5541949 0 0 0 0.08475,-0.31626 4.0925646,5.5541949 0 0 0 0.05529,-0.20516 4.0925646,5.5541949 0 0 0 0.101288,-0.53795 4.0925646,5.5541949 0 0 0 0.06098,-0.5488 4.0925646,5.5541949 0 0 0 0.02067,-0.55449 4.0925646,5.5541949 0 0 0 -0.01033,-0.39274 4.0925646,5.5541949 0 0 0 -0.04909,-0.55139 4.0925646,5.5541949 0 0 0 -0.08992,-0.54157 4.0925646,5.5541949 0 0 0 -0.128675,-0.5271 4.0925646,5.5541949 0 0 0 -0.167431,-0.50643 4.0925646,5.5541949 0 0 0 -0.108006,-0.25476 4.8481577,3.6595997 0 0 0 -0.109037,-0.094 4.8481577,3.6595997 0 0 0 -0.3545,-0.24908 4.8481577,3.6595997 0 0 0 -0.386021,-0.22169 4.8481577,3.6595997 0 0 0 -0.412896,-0.19121 4.8481577,3.6595997 0 0 0 -0.436666,-0.15916 4.8481577,3.6595997 0 0 0 -0.455268,-0.12506 4.8481577,3.6595997 0 0 0 -0.469223,-0.091 4.8481577,3.6595997 0 0 0 -0.479041,-0.0543 4.8481577,3.6595997 0 0 0 -0.484209,-0.0186 z"
         style="fill:#c8b7b7;fill-opacity:1;stroke:none;stroke-width:0.26458332;stroke-opacity:1" />
    </g>
  </g>
</svg>
